<?xml version="1.0" encoding="UTF-8" standalone="no"?>

<svg
   xmlns:svg="http://www.w3.org/2000/svg"
   xmlns="http://www.w3.org/2000/svg"
   xmlns:xlink="http://www.w3.org/1999/xlink"
   width="256px"
   height="256px"
   viewBox="0 0 100 100"
   version="1.1"
   id="svg8">
  <defs id="defs2">
     <path id="B-inner"
        d="m 46.432828,47.412477 c 0,-5.220203 -2.900114,-6.960269 -8.120315,-6.960269 h -7.34695 v 13.920539 h 6.960269 c 5.606882,0 8.506996,-1.740068 8.506996,-6.96027 z"
         />
  </defs>
  <g id="layer2">
    <g
       style="display:inline;fill:#000000"
       id="g3751">
      <g
         id="g3738">
        <g
           id="g3736">
          <path
             id="path3734"
             d="m 88.7665 50.00 c 0 -0.5775 -0.1155 -1.0395 -0.462 -1.5015 c -0.8085 -1.0395 -2.1945 -1.2705 -3.234 -0.5775 c -6.699 4.851 -16.17 3.3495 -21.021 -3.465 c -4.851 -6.8145 -3.3495 -16.17 3.465 -21.021 c 5.082 -3.696 12.012 -3.8115 17.2095 -0.231 c 0.5775 0.3465 1.155 0.5775 1.7325 0.462 c 1.5015 -0.1155 2.772 -1.5015 2.6565 -3.003 l -1.848 -17.8101 c -0.1155 -1.386 -1.2705 -2.4255 -2.541 -2.4255 l -73.5735 0 l 0 74.0355 l 0 0.231 c 0.1155 1.386 1.386 2.4255 2.772 2.31 l 23.562 -2.079 c 2.541 -0.231 4.851 1.7325 5.082 4.2735 c 0.1155 0.693 0 1.5015 -0.3465 2.079 c -1.2705 3.3495 -2.772 6.5835 -4.2735 9.8175 l 0 0 c -1.2705 2.772 -0.1155 6.1215 2.772 7.392 c 7.5075 3.465 16.401 1.0395 21.021 -5.775 c 2.1945 -3.1185 2.31 -7.2765 0.5775 -10.626 c -1.2705 -2.31 -0.3465 -5.1975 2.079 -6.468 c 0.8085 -0.462 1.7325 -0.5775 2.6565 -0.5775 l 18.1335 1.848 l 0.1155 0 c 1.386 0 2.6565 -1.0395 2.6565 -2.541 l 0.7692 -15.9113 z"
              />
        </g>
      </g>
    </g>
    <path
       d="m 17.01426,54.510076 h 5.993562 V 20.095409 H 17.01426 v -7.926971 h 8.893676 V 5.5948472 h 5.993567 v 6.5735908 h 4.446838 V 5.5948472 h 5.993566 v 6.7669288 c 8.506995,0.773365 12.953836,5.800223 12.953836,13.533858 0,4.446838 -2.513431,8.313655 -6.186909,10.053723 v 0.193352 c 4.833523,1.933409 7.540297,5.800225 7.540297,11.600446 0,8.120315 -4.2535,13.53386 -14.307224,14.307224 v 6.766928 h -5.993566 v -6.57359 h -4.446838 v 6.57359 h -5.993567 v -6.57359 H 17.01426 Z"
       id="path3684-2"
       style="fill:#ffffff;"
       mask="none" />
    <g
       transform="translate(0.93921528,0.137328)"
       style="fill:#000000">
      <g
         style="fill:#000000">
        <path
           d="m 46.432828,47.412477 c 0,-5.220203 -2.900114,-6.960269 -8.120315,-6.960269 h -7.34695 v 13.920539 h 6.960269 c 5.606882,0 8.506996,-1.740068 8.506996,-6.96027 z"
            />
        <path
           d="m 45.079437,26.338328 c 0,-3.866819 -2.126751,-6.380247 -6.573589,-6.380247 h -7.540285 v 12.760495 h 7.540285 c 4.446838,0 6.573589,-2.32009 6.573589,-6.380248 z"
            />
      </g>
    </g>
  </g>
</svg>
