<?xml version="1.0" encoding="UTF-8"?>
<svg width="1200pt" height="1200pt" version="1.1" viewBox="0 0 1200 1200" xmlns="http://www.w3.org/2000/svg">
 <g>
  <path d="m259.45 659.57c-6.3984 7.6523-10 22.227-10.281 42.574-0.33203 31.535-5.2148 52.922-9.0938 73.492-9.5352 50.055-25.906 114.03-25.906 114.03-4.293 20.773-35.625 12.641-29.238-7.6406 0 0 16.254-63.613 25.414-111.95 6.668-32.078 8.5469-56.172 9.2383-83.254-2.8398-1.668-13.746-2.2148-24.719 8.3984-7.7852 7.5586-27.078 33.332-44.586 59.309-17.508 25.895-34.453 53.254-40.988 65.559-8.5469 16.105-11.453 18.613-8.6016 41.801 8.668 71.535 27 113.25 21.094 170.33-2.625 26.121 7.1602 38.348 26.828 38.348h112.76c18.332 0 31.613-6.6133 39.32-25.707 28.602-71.039 28.746-95.281 10-165.21-19.734-73.668-13-152.43-13-194.65 0-15.078-3.6133-25.426-8.668-30.414-12.227-12.16-22.281-3.6797-29.574 4.9883zm12.973-41.586c20.215-1.6523 29.785 5.2148 39.867 17.293 10.078 12.094 15.625 29.172 15.625 49.719 0 45.148-5.9062 120 12 186.81 19.375 72.133 18.492 110.61-11.172 184.36-12 29.734-39.668 44.602-67.375 44.602h-112.76c-16.613 0-33.281-4.9453-44.32-17.852-11.039-12.852-14.719-31.254-12.508-53.613 4.8672-49.105-12-88.879-21.172-163.81-3.332-27.691 3.332-43.398 11.945-59.652 7.8398-14.785 24.719-41.734 42.625-68.266 17.84-26.52 35.492-51.387 48.613-64.094 21.039-20.414 47.508-18.895 53.668-17.508 7.207-18.949 24.754-36.402 44.965-37.988z"/>
  <path d="m940.36 659.57c6.3867 7.6523 10 22.227 10.215 42.574 0.33203 31.535 5.2656 52.922 9.1719 73.492 9.4258 50.055 25.879 114.03 25.879 114.03 4.2383 20.773 35.625 12.641 29.238-7.6406 0 0-16.254-63.613-25.414-111.95-6.668-32.078-8.5469-56.172-9.293-83.254 2.9219-1.668 13.801-2.2148 24.785 8.3984 7.707 7.5586 27.078 33.332 44.586 59.309 17.508 25.895 34.375 53.254 40.879 65.559 8.6133 16.105 11.535 18.613 8.6914 41.801-8.7461 71.535-27.027 113.25-21.199 170.33 2.707 26.121-7.1328 38.348-26.719 38.348h-112.87c-18.332 0-31.508-6.6133-39.215-25.707-28.613-71.039-28.746-95.281-10.078-165.21 19.785-73.668 13-152.43 13-194.65 0-15.078 3.668-25.426 8.668-30.414 12.234-12.16 22.379-3.6797 29.672 4.9883zm-12.984-41.586c-20.215-1.6523-29.785 5.2148-39.867 17.293-10.055 12.094-15.68 29.172-15.68 49.719 0 45.148 5.8789 120-12.027 186.81-19.293 72.133-18.465 110.61 11.254 184.36 11.945 29.734 39.668 44.602 67.293 44.602h112.87c16.586 0 33.172-4.9453 44.215-17.852 11.121-12.852 14.734-31.254 12.508-53.613-4.8398-49.105 12.078-88.879 21.199-163.81 3.3867-27.691-3.2812-43.398-11.879-59.652-7.9219-14.785-24.734-41.734-42.652-68.266-17.922-26.52-35.547-51.387-48.602-64.094-21.121-20.414-47.508-18.895-53.691-17.508-7.2344-18.949-24.738-36.402-44.938-37.988z"/>
  <path d="m455.28 820.15c-20.16 0-18.691 30.215 1.5078 30.215h286.95c20.785 0 20.906-30.215 0-30.215z"/>
  <path d="m464.92 99.172c-4.375 0-8.5469 1.9453-11.387 5.2148l-190.07 218.88c-2.4258 2.7852-3.7461 6.332-3.7461 9.9336v229.73c-0.13281 8.4531 6.668 15.398 15.16 15.398 8.3867 0 15.215-6.9453 15.055-15.398v-214.67h198.07c8.332 0.066406 15.055-6.668 15.133-15.078v-149.64c0.13281-8.5352-6.8008-15.492-15.332-15.332-8.332 0.13281-15 7-14.867 15.332v134.51h-164.93l163.8-188.6h438.69v433.48c-0.33203 8.6016 6.5352 15.812 15.133 15.812 8.6133 0 15.492-7.2148 15.078-15.812l0.003906-448.62c0.078125-8.3203-6.7461-15.133-15.133-15.133z" fill-rule="evenodd"/>
  <path d="m384.17 994.25c-20.234 0-18.664 31.227 1.4531 30.211h429.12c8.6016 0.33594 15.68-6.5312 15.68-15.078 0-8.6133-7.0781-15.492-15.68-15.133z" fill-rule="evenodd"/>
  <path d="m455.28 444.72c-20.16 0-18.691 30.227 1.5078 30.227h286.95c20.785 0 20.906-30.227 0-30.227z"/>
  <path d="m455.28 695.01c-20.16 0-18.691 30.215 1.5078 30.215h286.95c20.785 0 20.906-30.215 0-30.215z"/>
  <path d="m455.28 569.87c-20.16 0-18.691 30.227 1.5078 30.227h286.95c20.785 0 20.906-30.227 0-30.227z"/>
 </g>
</svg>
