<?xml version="1.0" encoding="UTF-8"?>
<svg width="1200pt" height="1200pt" version="1.1" viewBox="0 0 1200 1200" xmlns="http://www.w3.org/2000/svg">
 <g>
  <path d="m923.11 743.43c64.945-69.348 104.96-162.61 104.95-265.22-0.015625-214.43-173.61-388.24-387.82-388.25-214.25 0.011719-387.82 173.82-387.82 388.25 0 12.504 0.74219 24.793 1.8828 36.898-13.453 27.238-31.68 63.383-46.98 93.613-8.0742 15.926-15.312 30.18-20.605 40.559-2.6406 5.207-4.7773 9.4219-6.3008 12.422-0.75781 1.5-1.3555 2.6992-1.7891 3.5508l-0.53906 1.0664-0.48828 1.0352-0.046874 0.097656c-3.6484 8.1367-5.6172 17.16-5.6172 26.508 0.011719 35.82 28.98 64.906 64.824 64.934h28.992l-0.26562 115.79v0.046875c0.011719 45.961 37.223 83.258 83.207 83.27l121.77-0.070312 41.438 139.26c1.3672 4.6094 4.4883 8.4375 8.7344 10.727 4.2344 2.2695 9.1562 2.7617 13.754 1.3672l440.32-133.92c9.5039-2.9023 14.867-12.949 11.988-22.453zm-381.87 326.12-40.117-134.76c-2.2812-7.668-9.2656-12.863-17.258-12.863l-135.19 0.070313c-13.078-0.011719-24.758-5.2578-33.348-13.848-8.5781-8.6055-13.824-20.316-13.836-33.422l0.3125-133.8c0.011718-4.8008-1.8594-9.3477-5.2578-12.758-3.3945-3.3945-7.9453-5.2812-12.758-5.2812h-47.039c-15.863-0.035156-28.801-12.961-28.824-28.934 0-4.3086 0.88672-8.207 2.4492-11.723 0.28906-0.61328 1.2227-2.4102 2.6641-5.2695 11.363-22.402 52.117-102.35 75.758-150.39 1.5117-3.0703 2.1133-6.4688 1.7539-9.875-1.3789-12.688-2.1328-25.527-2.1328-38.488 0.011719-97.344 39.348-185.29 103.04-249.1 63.719-63.77 151.56-103.15 248.77-103.16 97.211 0.011719 185.04 39.383 248.76 103.16 63.707 63.793 103.04 151.75 103.05 249.1-0.011719 96.742-38.988 184.09-102.01 247.8-4.6445 4.6914-6.3359 11.555-4.4297 17.879l61.391 202.25z"/>
  <path d="m891.13 490.38c0-0.085937-0.011718-0.15625-0.011718-0.22656 21.445-16.523 35.219-42.73 35.23-72.098 0-23.879-9.168-45.707-24.121-61.906 0.40625-3.3828 0.63672-6.8633 0.63672-10.414 0-42.371-28.68-78.191-67.848-87.758-6.3594-13.273-15.648-24.828-27.277-33.504-14.508-10.824-32.594-17.293-51.984-17.281-6.8516 0-13.477 0.89844-19.836 2.4102-15.898-16.234-37.895-26.543-62.34-26.531-17.258-0.011718-33.395 5.1484-46.957 13.871-13.559-8.7344-29.699-13.883-46.957-13.871-19.703-0.011718-38.027 6.6602-52.656 17.773-10.668 8.1016-19.379 18.613-25.586 30.672-1.3203-0.058594-2.6055-0.22656-3.9375-0.22656-22.703-0.011718-43.535 8.8203-59.074 23.137-12.887 11.844-22.246 27.527-26.578 45.203-36.277 15.551-61.453 51.984-61.477 94.32 0 28.066 11.113 53.699 29.172 72.227 18.012 18.539 43.246 30.168 71.004 30.156 20.16 0.011719 38.914-6.2266 54.562-16.68 14.387 10.43 32.051 16.691 51.098 16.68 7.9688 0.011719 15.121-1.8945 21.07-4.3555 8.9414-3.7305 15.613-8.5312 20.484-11.555 2.4102-1.5352 4.332-2.6172 5.3984-3.0586l0.50391-0.20312c15.863 0.070313 32.711 6.5742 44.867 16.906 6.1562 5.1836 11.113 11.23 14.426 17.566 3.3125 6.3594 5.0508 12.949 5.0625 19.789l-0.73047 128.52c-0.035156 4.8125 1.8359 9.3828 5.2305 12.793 3.3945 3.4062 7.957 5.3047 12.77 5.3047h82.211c4.7539 0 9.3711-1.9219 12.73-5.2695 3.3594-3.3477 5.2695-7.9922 5.2695-12.73-0.011719-5.2578 0.625-13.535 1.957-22.645 1.9688-13.68 5.5547-29.508 10.176-41.555 2.2578-6.0117 4.8125-11.062 7.0078-14.172 1.0781-1.5586 2.0391-2.6289 2.6523-3.1562l0.53906-0.43359c1.8008-0.71875 4.3789-1.1641 10.285-2.0742 5.9023-0.91016 14.207-2.4102 25.234-5.9023 8.6172-2.7109 16.117-7.4023 22.223-13.164 9.1797-8.6641 15.422-19.477 19.523-30.898 4.0664-11.441 6.0352-23.625 6.0469-35.66zm-27.684-24.922c-6.2539 3.625-9.7422 10.656-8.832 17.82 0.32422 2.6055 0.51562 4.957 0.51562 7.1055 0.035157 10.703-2.5312 21.984-6.875 30.277-2.1602 4.1641-4.7031 7.5703-7.3555 10.055-2.6758 2.4961-5.375 4.1172-8.3984 5.0742-9.1328 2.8555-14.797 3.8516-20.027 4.6914-5.1133 0.83984-10.801 1.4297-17.785 4.1055-6.0586 2.3516-10.738 6.1211-14.484 10.152-6.5625 7.1523-10.934 15.457-14.699 24.445-5.5547 13.477-9.3945 28.656-12.035 43.008-1.2617 6.9609-2.2188 13.656-2.8789 19.871h-47.219l0.63672-110.51v-0.10938c0-13.117-3.4336-25.559-9.1797-36.504-8.6406-16.441-22.234-29.676-38.172-39.012-15.973-9.3008-34.453-14.785-53.52-14.809-7.8359 0.070312-13.633 2.7227-18.238 5.1133-6.875 3.7305-12.098 7.6797-16.895 10.273-4.8008 2.6758-8.4492 3.8398-11.82 3.8281-14.641-0.011719-27.758-6.168-37.43-16.332-6.7812-7.1875-18.121-7.5352-25.332-0.78125-11.543 10.715-26.398 17.113-42.887 17.125-17.641-0.011718-33.492-7.2734-45.215-19.273-11.688-12.012-18.961-28.586-18.961-47.102-0.023437-30.504 19.871-55.871 46.379-63.758 6.8633-2.0508 11.902-8.0508 12.742-15.168 1.5859-13.559 7.9805-25.535 17.293-34.105 9.3477-8.5547 21.371-13.633 34.715-13.645 3.7695 0 7.5117 0.45703 11.258 1.2969 9.1211 2.0391 18.277-3.2266 21.109-12.133 3.457-10.922 10.211-20.328 18.926-26.941 8.7461-6.6133 19.285-10.441 30.875-10.453 13.332 0.011719 25.344 5.1367 34.754 13.754 6.8984 6.3711 17.484 6.3711 24.383 0.011719 9.4219-8.6406 21.434-13.754 34.766-13.766 17.051 0 32.113 8.3867 41.867 21.758 4.8477 6.6836 13.645 9.2031 21.289 6.1094 5.9883-2.4102 12.312-3.7422 19.02-3.7422 11.41 0.011719 21.816 3.7305 30.469 10.152 8.6406 6.4336 15.371 15.602 18.984 26.293 2.2305 6.6367 8.0625 11.34 15.023 12.133 25.848 2.8672 46.656 25.703 46.645 53.965 0 4.2461-0.52734 8.4375-1.5 12.637-1.5117 6.5391 0.74219 13.367 5.8438 17.746 11.641 9.9609 19.141 24.949 19.141 41.953 0.007812 20.504-10.973 38.145-26.895 47.387z"/>
  <path d="m794.68 544.57 0.023438-0.011718z"/>
  <path d="m608.16 364.88c-2.6992 1.7539-6.2266 2.832-10.633 2.832-7.7266 0.070312-17.773-3.6953-25.883-11.855-8.1836-8.1133-11.93-18.191-11.879-25.895 0.023437-4.4023 1.1055-7.9219 2.8438-10.598 5.4258-8.3164 3.0859-19.477-5.2422-24.91-8.3281-5.4258-19.477-3.0859-24.91 5.2578-6 9.1797-8.6992 19.789-8.6992 30.254 0.070313 18.457 8.0156 36.875 22.414 51.348 14.484 14.41 32.902 22.355 51.348 22.414 10.465 0.011719 21.07-2.7109 30.254-8.6641 8.3281-5.4258 10.691-16.57 5.2695-24.898-5.4297-8.332-16.566-10.695-24.883-5.2852z"/>
  <path d="m739.25 381.78c5.9883-9.1914 8.6875-19.801 8.6875-30.266-0.070313-18.457-8.0156-36.875-22.414-51.348-14.473-14.398-32.902-22.344-51.348-22.414-10.465 0-21.086 2.6992-30.266 8.6992-8.3164 5.4375-10.668 16.598-5.2305 24.91 5.4375 8.3164 16.598 10.668 24.91 5.2305 2.6641-1.7383 6.168-2.8203 10.586-2.832 7.7266-0.058594 17.773 3.707 25.883 11.867 8.1719 8.1133 11.93 18.18 11.879 25.895-0.023438 4.4141-1.1055 7.9336-2.8438 10.609-5.4258 8.3164-3.0859 19.477 5.2578 24.91 8.3281 5.418 19.477 3.0547 24.898-5.2617z"/>
  <path d="m798.35 368.87c-8.3281 5.4375-10.691 16.586-5.2578 24.91 1.7383 2.6641 2.8203 6.1914 2.832 10.598 0.046875 7.7266-3.707 17.785-11.867 25.895-8.1133 8.1602-18.191 11.93-25.883 11.855-4.4297 0-7.9336-1.0938-10.609-2.832-8.3281-5.4258-19.488-3.0859-24.91 5.2578-5.4258 8.3164-3.0859 19.477 5.2422 24.91v-0.011719c9.1914 6 19.801 8.7109 30.277 8.6875 18.445-0.046875 36.863-8.0156 51.336-22.391 14.398-14.496 22.344-32.914 22.414-51.359 0-10.465-2.6992-21.07-8.6875-30.254-5.4102-8.3477-16.559-10.688-24.887-5.2656z"/>
 </g>
</svg>
