<svg class="bob" font-family="arial" font-size="14" height="320" width="480" xmlns="http://www.w3.org/2000/svg">
<defs>
<marker id="triangle" markerHeight="8" markerWidth="8" orient="auto" refX="4" refY="2" viewBox="0 0 8 4">
<polygon class="fg_fill" points="0,0 0,4 8,2 0,0"/>
</marker>
<marker id="clear_triangle" markerHeight="10" markerWidth="10" orient="auto" refX="1" refY="7" viewBox="0 0 20 14">
<polygon class="bg_fill fg_stroke" points="2,2 2,12 18,7 2,2"/>
</marker>
<marker id="circle" markerHeight="5" markerWidth="5" orient="auto" refX="10" refY="10" viewBox="0 0 20 20">
<circle class="fg_fill" cx="10" cy="10" r="8"/>
</marker>
<marker id="square" markerHeight="5" markerWidth="5" orient="auto" refX="10" refY="10" viewBox="0 0 20 20">
<rect class="fg_fill" height="20" width="20" x="0" y="0"/>
</marker>
<marker id="open_circle" markerHeight="10" markerWidth="10" orient="auto" refX="10" refY="10" viewBox="0 0 20 20">
<circle class="bg_fill fg_stroke" cx="10" cy="10" r="4"/>
</marker>
<marker id="big_open_circle" markerHeight="20" markerWidth="20" orient="auto" refX="20" refY="20" viewBox="0 0 40 40">
<circle class="bg_fill fg_stroke" cx="20" cy="20" r="6"/>
</marker>
</defs>
<style type="text/css">

rect.backdrop {
    fill: white;
}

.fg_fill {
    fill: black;
}


.bg_fill {
    fill: white;
}

.fg_stroke {
    stroke: black;
    stroke-width: 2;
}

.no_fill {
    fill: none;
}

.dashed {
    stroke-dasharray: 5;
}


text{
    fill: black;
}

line, path {
    stroke-linecap: round;
    stroke-linejoin: miter;
    stroke-opacity: 1;
    fill-opacity: 1;
}




tspan.head{
    fill: none;
    stroke: none;
}
    
</style>
<rect class="backdrop" height="320" width="480" x="0" y="0"/>
<g>
<line class="fg_stroke" x1="220" x2="220" y1="28" y2="52"/>
<path class="fg_stroke no_fill" d="M 220 52 A 4 4 0 0 0 224 56"/>
<path class="fg_stroke no_fill" d="M 224 24 A 4 4 0 0 0 220 28"/>
<line class="fg_stroke" marker-end="url(#open_circle)" x1="224" x2="236" y1="56" y2="56"/>
<line class="fg_stroke" marker-end="url(#triangle)" marker-start="url(#open_circle)" x1="236" x2="236" y1="56" y2="92"/>
<line class="fg_stroke" marker-end="url(#open_circle)" marker-start="url(#open_circle)" x1="236" x2="268" y1="56" y2="56"/>
<line class="fg_stroke" marker-end="url(#triangle)" marker-start="url(#open_circle)" x1="268" x2="268" y1="56" y2="92"/>
<line class="fg_stroke" marker-end="url(#open_circle)" marker-start="url(#open_circle)" x1="268" x2="300" y1="56" y2="56"/>
<line class="fg_stroke" marker-end="url(#triangle)" marker-start="url(#open_circle)" x1="300" x2="300" y1="56" y2="92"/>
<line class="fg_stroke" marker-end="url(#open_circle)" marker-start="url(#open_circle)" x1="300" x2="332" y1="56" y2="56"/>
<line class="fg_stroke" marker-end="url(#triangle)" marker-start="url(#open_circle)" x1="332" x2="332" y1="56" y2="92"/>
<line class="fg_stroke" marker-end="url(#open_circle)" marker-start="url(#open_circle)" x1="332" x2="364" y1="56" y2="56"/>
<line class="fg_stroke" marker-end="url(#triangle)" marker-start="url(#open_circle)" x1="364" x2="364" y1="56" y2="92"/>
<line class="fg_stroke" marker-end="url(#open_circle)" marker-start="url(#open_circle)" x1="364" x2="396" y1="56" y2="56"/>
<line class="fg_stroke" marker-end="url(#triangle)" marker-start="url(#open_circle)" x1="396" x2="396" y1="56" y2="92"/>
<line class="fg_stroke" marker-end="url(#open_circle)" marker-start="url(#open_circle)" x1="396" x2="428" y1="56" y2="56"/>
<line class="fg_stroke" marker-end="url(#triangle)" marker-start="url(#open_circle)" x1="428" x2="428" y1="56" y2="92"/>
<line class="fg_stroke" marker-end="url(#open_circle)" marker-start="url(#open_circle)" x1="428" x2="460" y1="56" y2="56"/>
<line class="fg_stroke" marker-end="url(#triangle)" marker-start="url(#open_circle)" x1="460" x2="460" y1="56" y2="92"/>
<line class="fg_stroke" marker-start="url(#open_circle)" x1="460" x2="472" y1="56" y2="56"/>
</g>
<g>
<line class="fg_stroke" x1="220" x2="220" y1="108" y2="132"/>
<path class="fg_stroke no_fill" d="M 220 132 A 4 4 0 0 0 224 136"/>
<path class="fg_stroke no_fill" d="M 224 104 A 4 4 0 0 0 220 108"/>
</g>
<g>
<line class="fg_stroke" x1="220" x2="220" y1="156" y2="180"/>
<path class="fg_stroke no_fill" d="M 220 180 A 4 4 0 0 0 224 184"/>
<path class="fg_stroke no_fill" d="M 224 152 A 4 4 0 0 0 220 156"/>
</g>
<g>
<line class="fg_stroke" x1="220" x2="220" y1="204" y2="228"/>
<path class="fg_stroke no_fill" d="M 220 228 A 4 4 0 0 0 224 232"/>
<path class="fg_stroke no_fill" d="M 224 200 A 4 4 0 0 0 220 204"/>
<line class="fg_stroke" marker-end="url(#open_circle)" x1="224" x2="236" y1="232" y2="232"/>
<line class="fg_stroke" marker-end="url(#triangle)" marker-start="url(#open_circle)" x1="236" x2="236" y1="232" y2="268"/>
<line class="fg_stroke" marker-end="url(#open_circle)" marker-start="url(#open_circle)" x1="236" x2="268" y1="232" y2="232"/>
<line class="fg_stroke" marker-end="url(#triangle)" marker-start="url(#open_circle)" x1="268" x2="268" y1="232" y2="268"/>
<line class="fg_stroke" marker-end="url(#open_circle)" marker-start="url(#open_circle)" x1="268" x2="300" y1="232" y2="232"/>
<line class="fg_stroke" marker-end="url(#triangle)" marker-start="url(#open_circle)" x1="300" x2="300" y1="232" y2="268"/>
<line class="fg_stroke" marker-end="url(#open_circle)" marker-start="url(#open_circle)" x1="300" x2="332" y1="232" y2="232"/>
<line class="fg_stroke" marker-end="url(#triangle)" marker-start="url(#open_circle)" x1="332" x2="332" y1="232" y2="268"/>
<line class="fg_stroke" marker-end="url(#open_circle)" marker-start="url(#open_circle)" x1="332" x2="364" y1="232" y2="232"/>
<line class="fg_stroke" marker-end="url(#triangle)" marker-start="url(#open_circle)" x1="364" x2="364" y1="232" y2="268"/>
<line class="fg_stroke" marker-end="url(#open_circle)" marker-start="url(#open_circle)" x1="364" x2="396" y1="232" y2="232"/>
<line class="fg_stroke" marker-end="url(#triangle)" marker-start="url(#open_circle)" x1="396" x2="396" y1="232" y2="268"/>
<line class="fg_stroke" marker-end="url(#open_circle)" marker-start="url(#open_circle)" x1="396" x2="428" y1="232" y2="232"/>
<line class="fg_stroke" marker-end="url(#triangle)" marker-start="url(#open_circle)" x1="428" x2="428" y1="232" y2="268"/>
<line class="fg_stroke" marker-end="url(#open_circle)" marker-start="url(#open_circle)" x1="428" x2="460" y1="232" y2="232"/>
<line class="fg_stroke" marker-end="url(#triangle)" marker-start="url(#open_circle)" x1="460" x2="460" y1="232" y2="268"/>
<line class="fg_stroke" marker-start="url(#open_circle)" x1="460" x2="472" y1="232" y2="232"/>
</g>
<g>
<line class="fg_stroke" x1="220" x2="220" y1="284" y2="308"/>
<path class="fg_stroke no_fill" d="M 220 308 A 4 4 0 0 0 224 312"/>
<path class="fg_stroke no_fill" d="M 224 280 A 4 4 0 0 0 220 284"/>
</g>
<g>
<line class="fg_stroke" x1="224" x2="472" y1="24" y2="24"/>
<path class="fg_stroke no_fill" d="M 476 28 A 4 4 0 0 0 472 24"/>
</g>
<g>
<line class="fg_stroke" x1="224" x2="236" y1="104" y2="104"/>
<line class="fg_stroke" x1="236" x2="268" y1="104" y2="104"/>
<line class="fg_stroke" x1="268" x2="300" y1="104" y2="104"/>
<line class="fg_stroke" x1="300" x2="332" y1="104" y2="104"/>
<line class="fg_stroke" x1="332" x2="364" y1="104" y2="104"/>
<line class="fg_stroke" x1="364" x2="396" y1="104" y2="104"/>
<line class="fg_stroke" x1="396" x2="428" y1="104" y2="104"/>
<line class="fg_stroke" x1="428" x2="460" y1="104" y2="104"/>
<line class="fg_stroke" x1="460" x2="472" y1="104" y2="104"/>
<path class="fg_stroke no_fill" d="M 476 108 A 4 4 0 0 0 472 104"/>
</g>
<g>
<line class="fg_stroke" x1="224" x2="472" y1="136" y2="136"/>
<path class="fg_stroke no_fill" d="M 472 136 A 4 4 0 0 0 476 132"/>
</g>
<g>
<line class="fg_stroke" x1="224" x2="472" y1="152" y2="152"/>
<path class="fg_stroke no_fill" d="M 476 156 A 4 4 0 0 0 472 152"/>
</g>
<g>
<line class="fg_stroke" x1="224" x2="472" y1="184" y2="184"/>
<path class="fg_stroke no_fill" d="M 472 184 A 4 4 0 0 0 476 180"/>
</g>
<g>
<line class="fg_stroke" x1="224" x2="472" y1="200" y2="200"/>
<path class="fg_stroke no_fill" d="M 476 204 A 4 4 0 0 0 472 200"/>
</g>
<g>
<line class="fg_stroke" x1="224" x2="236" y1="280" y2="280"/>
<line class="fg_stroke" x1="236" x2="268" y1="280" y2="280"/>
<line class="fg_stroke" x1="268" x2="300" y1="280" y2="280"/>
<line class="fg_stroke" x1="300" x2="332" y1="280" y2="280"/>
<line class="fg_stroke" x1="332" x2="364" y1="280" y2="280"/>
<line class="fg_stroke" x1="364" x2="396" y1="280" y2="280"/>
<line class="fg_stroke" x1="396" x2="428" y1="280" y2="280"/>
<line class="fg_stroke" x1="428" x2="460" y1="280" y2="280"/>
<line class="fg_stroke" x1="460" x2="472" y1="280" y2="280"/>
<path class="fg_stroke no_fill" d="M 476 284 A 4 4 0 0 0 472 280"/>
</g>
<g>
<line class="fg_stroke" x1="224" x2="472" y1="312" y2="312"/>
<path class="fg_stroke no_fill" d="M 472 312 A 4 4 0 0 0 476 308"/>
</g>
<g>
<line class="fg_stroke" x1="476" x2="476" y1="28" y2="52"/>
<path class="fg_stroke no_fill" d="M 472 56 A 4 4 0 0 0 476 52"/>
</g>
<g>
<line class="fg_stroke" x1="476" x2="476" y1="108" y2="132"/>
</g>
<g>
<line class="fg_stroke" x1="476" x2="476" y1="156" y2="180"/>
</g>
<g>
<line class="fg_stroke" x1="476" x2="476" y1="204" y2="228"/>
<path class="fg_stroke no_fill" d="M 472 232 A 4 4 0 0 0 476 228"/>
</g>
<g>
<line class="fg_stroke" x1="476" x2="476" y1="284" y2="308"/>
</g>
<g>
<line class="fg_stroke dashed" x1="252" x2="252" y1="32" y2="48"/>
</g>
<g>
<line class="fg_stroke dashed" x1="252" x2="252" y1="112" y2="128"/>
</g>
<g>
<line class="fg_stroke dashed" x1="252" x2="252" y1="160" y2="176"/>
</g>
<g>
<line class="fg_stroke dashed" x1="252" x2="252" y1="208" y2="224"/>
</g>
<g>
<line class="fg_stroke dashed" x1="252" x2="252" y1="288" y2="304"/>
</g>
<g>
<line class="fg_stroke dashed" x1="284" x2="284" y1="32" y2="48"/>
</g>
<g>
<line class="fg_stroke dashed" x1="284" x2="284" y1="112" y2="128"/>
</g>
<g>
<line class="fg_stroke dashed" x1="284" x2="284" y1="160" y2="176"/>
</g>
<g>
<line class="fg_stroke dashed" x1="284" x2="284" y1="208" y2="224"/>
</g>
<g>
<line class="fg_stroke dashed" x1="284" x2="284" y1="288" y2="304"/>
</g>
<g>
<line class="fg_stroke dashed" x1="316" x2="316" y1="32" y2="48"/>
</g>
<g>
<line class="fg_stroke dashed" x1="316" x2="316" y1="112" y2="128"/>
</g>
<g>
<line class="fg_stroke dashed" x1="316" x2="316" y1="160" y2="176"/>
</g>
<g>
<line class="fg_stroke dashed" x1="316" x2="316" y1="208" y2="224"/>
</g>
<g>
<line class="fg_stroke dashed" x1="316" x2="316" y1="288" y2="304"/>
</g>
<g>
<line class="fg_stroke dashed" x1="348" x2="348" y1="32" y2="48"/>
</g>
<g>
<line class="fg_stroke dashed" x1="348" x2="348" y1="112" y2="128"/>
</g>
<g>
<line class="fg_stroke dashed" x1="348" x2="348" y1="160" y2="176"/>
</g>
<g>
<line class="fg_stroke dashed" x1="348" x2="348" y1="208" y2="224"/>
</g>
<g>
<line class="fg_stroke dashed" x1="348" x2="348" y1="288" y2="304"/>
</g>
<g>
<line class="fg_stroke dashed" x1="380" x2="380" y1="32" y2="48"/>
</g>
<g>
<line class="fg_stroke dashed" x1="380" x2="380" y1="112" y2="128"/>
</g>
<g>
<line class="fg_stroke dashed" x1="380" x2="380" y1="160" y2="176"/>
</g>
<g>
<line class="fg_stroke dashed" x1="380" x2="380" y1="208" y2="224"/>
</g>
<g>
<line class="fg_stroke dashed" x1="380" x2="380" y1="288" y2="304"/>
</g>
<g>
<line class="fg_stroke dashed" x1="412" x2="412" y1="32" y2="48"/>
</g>
<g>
<line class="fg_stroke dashed" x1="412" x2="412" y1="112" y2="128"/>
</g>
<g>
<line class="fg_stroke dashed" x1="412" x2="412" y1="160" y2="176"/>
</g>
<g>
<line class="fg_stroke dashed" x1="412" x2="412" y1="208" y2="224"/>
</g>
<g>
<line class="fg_stroke dashed" x1="412" x2="412" y1="288" y2="304"/>
</g>
<g>
<line class="fg_stroke dashed" x1="444" x2="444" y1="32" y2="48"/>
</g>
<g>
<line class="fg_stroke dashed" x1="444" x2="444" y1="112" y2="128"/>
</g>
<g>
<line class="fg_stroke dashed" x1="444" x2="444" y1="160" y2="176"/>
</g>
<g>
<line class="fg_stroke dashed" x1="444" x2="444" y1="208" y2="224"/>
</g>
<g>
<line class="fg_stroke dashed" x1="444" x2="444" y1="288" y2="304"/>
</g>
<g>
<text class="fg_fill" x="9" y="44">
raw_salt || brainkey
</text>
</g>
<g>
<text class="fg_fill" x="9" y="300">
raw_salt || brainkey
</text>
</g>
<g>
<text class="fg_fill" x="57" y="124">
Raw Share x=1
</text>
</g>
<g>
<text class="fg_fill" x="57" y="172">
Raw Share x=2
</text>
</g>
<g>
<text class="fg_fill" x="57" y="220">
Raw Share x=3
</text>
</g>
<g>
<text class="fg_fill" x="89" y="12">
byte offset
</text>
</g>
<g>
<text class="fg_fill" x="113" y="92">
Split
</text>
</g>
<g>
<text class="fg_fill" x="121" y="268">
Join
</text>
</g>
<g>
<text class="fg_fill" x="233" y="12">
0
</text>
</g>
<g>
<text class="fg_fill" x="233" y="44">
A
</text>
</g>
<g>
<text class="fg_fill" x="233" y="124">
F
</text>
</g>
<g>
<text class="fg_fill" x="233" y="172">
T
</text>
</g>
<g>
<text class="fg_fill" x="233" y="220">
Q
</text>
</g>
<g>
<text class="fg_fill" x="233" y="300">
A
</text>
</g>
<g>
<text class="fg_fill" x="265" y="12">
1
</text>
</g>
<g>
<text class="fg_fill" x="265" y="44">
B
</text>
</g>
<g>
<text class="fg_fill" x="265" y="124">
A
</text>
</g>
<g>
<text class="fg_fill" x="265" y="172">
O
</text>
</g>
<g>
<text class="fg_fill" x="265" y="220">
B
</text>
</g>
<g>
<text class="fg_fill" x="265" y="300">
B
</text>
</g>
<g>
<text class="fg_fill" x="297" y="12">
2
</text>
</g>
<g>
<text class="fg_fill" x="297" y="44">
C
</text>
</g>
<g>
<text class="fg_fill" x="297" y="124">
Y
</text>
</g>
<g>
<text class="fg_fill" x="297" y="172">
H
</text>
</g>
<g>
<text class="fg_fill" x="297" y="220">
D
</text>
</g>
<g>
<text class="fg_fill" x="297" y="300">
C
</text>
</g>
<g>
<text class="fg_fill" x="329" y="12">
3
</text>
</g>
<g>
<text class="fg_fill" x="329" y="44">
D
</text>
</g>
<g>
<text class="fg_fill" x="329" y="124">
U
</text>
</g>
<g>
<text class="fg_fill" x="329" y="172">
N
</text>
</g>
<g>
<text class="fg_fill" x="329" y="220">
P
</text>
</g>
<g>
<text class="fg_fill" x="329" y="300">
D
</text>
</g>
<g>
<text class="fg_fill" x="361" y="12">
4
</text>
</g>
<g>
<text class="fg_fill" x="361" y="44">
E
</text>
</g>
<g>
<text class="fg_fill" x="361" y="124">
K
</text>
</g>
<g>
<text class="fg_fill" x="361" y="172">
T
</text>
</g>
<g>
<text class="fg_fill" x="361" y="220">
K
</text>
</g>
<g>
<text class="fg_fill" x="361" y="300">
E
</text>
</g>
<g>
<text class="fg_fill" x="393" y="12">
5
</text>
</g>
<g>
<text class="fg_fill" x="393" y="44">
F
</text>
</g>
<g>
<text class="fg_fill" x="393" y="124">
T
</text>
</g>
<g>
<text class="fg_fill" x="393" y="172">
D
</text>
</g>
<g>
<text class="fg_fill" x="393" y="220">
J
</text>
</g>
<g>
<text class="fg_fill" x="393" y="300">
F
</text>
</g>
<g>
<text class="fg_fill" x="425" y="12">
6
</text>
</g>
<g>
<text class="fg_fill" x="425" y="44">
G
</text>
</g>
<g>
<text class="fg_fill" x="425" y="124">
E
</text>
</g>
<g>
<text class="fg_fill" x="425" y="172">
V
</text>
</g>
<g>
<text class="fg_fill" x="425" y="220">
D
</text>
</g>
<g>
<text class="fg_fill" x="425" y="300">
G
</text>
</g>
<g>
<text class="fg_fill" x="457" y="12">
7
</text>
</g>
<g>
<text class="fg_fill" x="457" y="44">
H
</text>
</g>
<g>
<text class="fg_fill" x="457" y="124">
M
</text>
</g>
<g>
<text class="fg_fill" x="457" y="172">
W
</text>
</g>
<g>
<text class="fg_fill" x="457" y="220">
Z
</text>
</g>
<g>
<text class="fg_fill" x="457" y="300">
H
</text>
</g>
</svg>