<svg class="bob" font-family="arial" font-size="14" height="320" width="440" xmlns="http://www.w3.org/2000/svg">
<defs>
<marker id="triangle" markerHeight="8" markerWidth="8" orient="auto" refX="4" refY="2" viewBox="0 0 8 4">
<polygon class="fg_fill" points="0,0 0,4 8,2 0,0"/>
</marker>
<marker id="clear_triangle" markerHeight="10" markerWidth="10" orient="auto" refX="1" refY="7" viewBox="0 0 20 14">
<polygon class="bg_fill fg_stroke" points="2,2 2,12 18,7 2,2"/>
</marker>
<marker id="circle" markerHeight="5" markerWidth="5" orient="auto" refX="10" refY="10" viewBox="0 0 20 20">
<circle class="fg_fill" cx="10" cy="10" r="8"/>
</marker>
<marker id="square" markerHeight="5" markerWidth="5" orient="auto" refX="10" refY="10" viewBox="0 0 20 20">
<rect class="fg_fill" height="20" width="20" x="0" y="0"/>
</marker>
<marker id="open_circle" markerHeight="10" markerWidth="10" orient="auto" refX="10" refY="10" viewBox="0 0 20 20">
<circle class="bg_fill fg_stroke" cx="10" cy="10" r="4"/>
</marker>
<marker id="big_open_circle" markerHeight="20" markerWidth="20" orient="auto" refX="20" refY="20" viewBox="0 0 40 40">
<circle class="bg_fill fg_stroke" cx="20" cy="20" r="6"/>
</marker>
</defs>
<style type="text/css">

rect.backdrop {
    fill: white;
}

.fg_fill {
    fill: black;
}


.bg_fill {
    fill: white;
}

.fg_stroke {
    stroke: black;
    stroke-width: 2;
}

.no_fill {
    fill: none;
}

.dashed {
    stroke-dasharray: 5;
}


text{
    fill: black;
}

line, path {
    stroke-linecap: round;
    stroke-linejoin: miter;
    stroke-opacity: 1;
    fill-opacity: 1;
}




tspan.head{
    fill: none;
    stroke: none;
}
    
</style>
<rect class="backdrop" height="320" width="440" x="0" y="0"/>
<g>
<line class="fg_stroke" x1="180" x2="180" y1="28" y2="52"/>
<path class="fg_stroke no_fill" d="M 180 52 A 4 4 0 0 0 184 56"/>
<path class="fg_stroke no_fill" d="M 184 24 A 4 4 0 0 0 180 28"/>
<line class="fg_stroke" marker-end="url(#open_circle)" x1="184" x2="196" y1="56" y2="56"/>
<line class="fg_stroke" marker-end="url(#triangle)" marker-start="url(#open_circle)" x1="196" x2="196" y1="56" y2="92"/>
<line class="fg_stroke" marker-end="url(#open_circle)" marker-start="url(#open_circle)" x1="196" x2="228" y1="56" y2="56"/>
<line class="fg_stroke" marker-end="url(#triangle)" marker-start="url(#open_circle)" x1="228" x2="228" y1="56" y2="92"/>
<line class="fg_stroke" marker-end="url(#open_circle)" marker-start="url(#open_circle)" x1="228" x2="260" y1="56" y2="56"/>
<line class="fg_stroke" marker-end="url(#triangle)" marker-start="url(#open_circle)" x1="260" x2="260" y1="56" y2="92"/>
<line class="fg_stroke" marker-end="url(#open_circle)" marker-start="url(#open_circle)" x1="260" x2="292" y1="56" y2="56"/>
<line class="fg_stroke" marker-end="url(#triangle)" marker-start="url(#open_circle)" x1="292" x2="292" y1="56" y2="92"/>
<line class="fg_stroke" marker-end="url(#open_circle)" marker-start="url(#open_circle)" x1="292" x2="324" y1="56" y2="56"/>
<line class="fg_stroke" marker-end="url(#triangle)" marker-start="url(#open_circle)" x1="324" x2="324" y1="56" y2="92"/>
<line class="fg_stroke" marker-end="url(#open_circle)" marker-start="url(#open_circle)" x1="324" x2="356" y1="56" y2="56"/>
<line class="fg_stroke" marker-end="url(#triangle)" marker-start="url(#open_circle)" x1="356" x2="356" y1="56" y2="92"/>
<line class="fg_stroke" marker-end="url(#open_circle)" marker-start="url(#open_circle)" x1="356" x2="388" y1="56" y2="56"/>
<line class="fg_stroke" marker-end="url(#triangle)" marker-start="url(#open_circle)" x1="388" x2="388" y1="56" y2="92"/>
<line class="fg_stroke" marker-end="url(#open_circle)" marker-start="url(#open_circle)" x1="388" x2="420" y1="56" y2="56"/>
<line class="fg_stroke" marker-end="url(#triangle)" marker-start="url(#open_circle)" x1="420" x2="420" y1="56" y2="92"/>
<line class="fg_stroke" marker-start="url(#open_circle)" x1="420" x2="432" y1="56" y2="56"/>
</g>
<g>
<line class="fg_stroke" x1="180" x2="180" y1="108" y2="132"/>
<path class="fg_stroke no_fill" d="M 180 132 A 4 4 0 0 0 184 136"/>
<path class="fg_stroke no_fill" d="M 184 104 A 4 4 0 0 0 180 108"/>
</g>
<g>
<line class="fg_stroke" x1="180" x2="180" y1="156" y2="180"/>
<path class="fg_stroke no_fill" d="M 180 180 A 4 4 0 0 0 184 184"/>
<path class="fg_stroke no_fill" d="M 184 152 A 4 4 0 0 0 180 156"/>
</g>
<g>
<line class="fg_stroke" x1="180" x2="180" y1="204" y2="228"/>
<path class="fg_stroke no_fill" d="M 180 228 A 4 4 0 0 0 184 232"/>
<path class="fg_stroke no_fill" d="M 184 200 A 4 4 0 0 0 180 204"/>
<line class="fg_stroke" marker-end="url(#open_circle)" x1="184" x2="196" y1="232" y2="232"/>
<line class="fg_stroke" marker-end="url(#triangle)" marker-start="url(#open_circle)" x1="196" x2="196" y1="232" y2="268"/>
<line class="fg_stroke" marker-end="url(#open_circle)" marker-start="url(#open_circle)" x1="196" x2="228" y1="232" y2="232"/>
<line class="fg_stroke" marker-end="url(#triangle)" marker-start="url(#open_circle)" x1="228" x2="228" y1="232" y2="268"/>
<line class="fg_stroke" marker-end="url(#open_circle)" marker-start="url(#open_circle)" x1="228" x2="260" y1="232" y2="232"/>
<line class="fg_stroke" marker-end="url(#triangle)" marker-start="url(#open_circle)" x1="260" x2="260" y1="232" y2="268"/>
<line class="fg_stroke" marker-end="url(#open_circle)" marker-start="url(#open_circle)" x1="260" x2="292" y1="232" y2="232"/>
<line class="fg_stroke" marker-end="url(#triangle)" marker-start="url(#open_circle)" x1="292" x2="292" y1="232" y2="268"/>
<line class="fg_stroke" marker-end="url(#open_circle)" marker-start="url(#open_circle)" x1="292" x2="324" y1="232" y2="232"/>
<line class="fg_stroke" marker-end="url(#triangle)" marker-start="url(#open_circle)" x1="324" x2="324" y1="232" y2="268"/>
<line class="fg_stroke" marker-end="url(#open_circle)" marker-start="url(#open_circle)" x1="324" x2="356" y1="232" y2="232"/>
<line class="fg_stroke" marker-end="url(#triangle)" marker-start="url(#open_circle)" x1="356" x2="356" y1="232" y2="268"/>
<line class="fg_stroke" marker-end="url(#open_circle)" marker-start="url(#open_circle)" x1="356" x2="388" y1="232" y2="232"/>
<line class="fg_stroke" marker-end="url(#triangle)" marker-start="url(#open_circle)" x1="388" x2="388" y1="232" y2="268"/>
<line class="fg_stroke" marker-end="url(#open_circle)" marker-start="url(#open_circle)" x1="388" x2="420" y1="232" y2="232"/>
<line class="fg_stroke" marker-end="url(#triangle)" marker-start="url(#open_circle)" x1="420" x2="420" y1="232" y2="268"/>
<line class="fg_stroke" marker-start="url(#open_circle)" x1="420" x2="432" y1="232" y2="232"/>
</g>
<g>
<line class="fg_stroke" x1="180" x2="180" y1="284" y2="308"/>
<path class="fg_stroke no_fill" d="M 180 308 A 4 4 0 0 0 184 312"/>
<path class="fg_stroke no_fill" d="M 184 280 A 4 4 0 0 0 180 284"/>
</g>
<g>
<line class="fg_stroke" x1="184" x2="432" y1="24" y2="24"/>
<path class="fg_stroke no_fill" d="M 436 28 A 4 4 0 0 0 432 24"/>
</g>
<g>
<line class="fg_stroke" x1="184" x2="196" y1="104" y2="104"/>
<line class="fg_stroke" x1="196" x2="228" y1="104" y2="104"/>
<line class="fg_stroke" x1="228" x2="260" y1="104" y2="104"/>
<line class="fg_stroke" x1="260" x2="292" y1="104" y2="104"/>
<line class="fg_stroke" x1="292" x2="324" y1="104" y2="104"/>
<line class="fg_stroke" x1="324" x2="356" y1="104" y2="104"/>
<line class="fg_stroke" x1="356" x2="388" y1="104" y2="104"/>
<line class="fg_stroke" x1="388" x2="420" y1="104" y2="104"/>
<line class="fg_stroke" x1="420" x2="432" y1="104" y2="104"/>
<path class="fg_stroke no_fill" d="M 436 108 A 4 4 0 0 0 432 104"/>
</g>
<g>
<line class="fg_stroke" x1="184" x2="432" y1="136" y2="136"/>
<path class="fg_stroke no_fill" d="M 432 136 A 4 4 0 0 0 436 132"/>
</g>
<g>
<line class="fg_stroke" x1="184" x2="432" y1="152" y2="152"/>
<path class="fg_stroke no_fill" d="M 436 156 A 4 4 0 0 0 432 152"/>
</g>
<g>
<line class="fg_stroke" x1="184" x2="432" y1="184" y2="184"/>
<path class="fg_stroke no_fill" d="M 432 184 A 4 4 0 0 0 436 180"/>
</g>
<g>
<line class="fg_stroke" x1="184" x2="432" y1="200" y2="200"/>
<path class="fg_stroke no_fill" d="M 436 204 A 4 4 0 0 0 432 200"/>
</g>
<g>
<line class="fg_stroke" x1="184" x2="196" y1="280" y2="280"/>
<line class="fg_stroke" x1="196" x2="228" y1="280" y2="280"/>
<line class="fg_stroke" x1="228" x2="260" y1="280" y2="280"/>
<line class="fg_stroke" x1="260" x2="292" y1="280" y2="280"/>
<line class="fg_stroke" x1="292" x2="324" y1="280" y2="280"/>
<line class="fg_stroke" x1="324" x2="356" y1="280" y2="280"/>
<line class="fg_stroke" x1="356" x2="388" y1="280" y2="280"/>
<line class="fg_stroke" x1="388" x2="420" y1="280" y2="280"/>
<line class="fg_stroke" x1="420" x2="432" y1="280" y2="280"/>
<path class="fg_stroke no_fill" d="M 436 284 A 4 4 0 0 0 432 280"/>
</g>
<g>
<line class="fg_stroke" x1="184" x2="432" y1="312" y2="312"/>
<path class="fg_stroke no_fill" d="M 432 312 A 4 4 0 0 0 436 308"/>
</g>
<g>
<line class="fg_stroke" x1="436" x2="436" y1="28" y2="52"/>
<path class="fg_stroke no_fill" d="M 432 56 A 4 4 0 0 0 436 52"/>
</g>
<g>
<line class="fg_stroke" x1="436" x2="436" y1="108" y2="132"/>
</g>
<g>
<line class="fg_stroke" x1="436" x2="436" y1="156" y2="180"/>
</g>
<g>
<line class="fg_stroke" x1="436" x2="436" y1="204" y2="228"/>
<path class="fg_stroke no_fill" d="M 432 232 A 4 4 0 0 0 436 228"/>
</g>
<g>
<line class="fg_stroke" x1="436" x2="436" y1="284" y2="308"/>
</g>
<g>
<line class="fg_stroke dashed" x1="212" x2="212" y1="32" y2="48"/>
</g>
<g>
<line class="fg_stroke dashed" x1="212" x2="212" y1="112" y2="128"/>
</g>
<g>
<line class="fg_stroke dashed" x1="212" x2="212" y1="160" y2="176"/>
</g>
<g>
<line class="fg_stroke dashed" x1="212" x2="212" y1="208" y2="224"/>
</g>
<g>
<line class="fg_stroke dashed" x1="212" x2="212" y1="288" y2="304"/>
</g>
<g>
<line class="fg_stroke dashed" x1="244" x2="244" y1="32" y2="48"/>
</g>
<g>
<line class="fg_stroke dashed" x1="244" x2="244" y1="112" y2="128"/>
</g>
<g>
<line class="fg_stroke dashed" x1="244" x2="244" y1="160" y2="176"/>
</g>
<g>
<line class="fg_stroke dashed" x1="244" x2="244" y1="208" y2="224"/>
</g>
<g>
<line class="fg_stroke dashed" x1="244" x2="244" y1="288" y2="304"/>
</g>
<g>
<line class="fg_stroke dashed" x1="276" x2="276" y1="32" y2="48"/>
</g>
<g>
<line class="fg_stroke dashed" x1="276" x2="276" y1="112" y2="128"/>
</g>
<g>
<line class="fg_stroke dashed" x1="276" x2="276" y1="160" y2="176"/>
</g>
<g>
<line class="fg_stroke dashed" x1="276" x2="276" y1="208" y2="224"/>
</g>
<g>
<line class="fg_stroke dashed" x1="276" x2="276" y1="288" y2="304"/>
</g>
<g>
<line class="fg_stroke dashed" x1="308" x2="308" y1="32" y2="48"/>
</g>
<g>
<line class="fg_stroke dashed" x1="308" x2="308" y1="112" y2="128"/>
</g>
<g>
<line class="fg_stroke dashed" x1="308" x2="308" y1="160" y2="176"/>
</g>
<g>
<line class="fg_stroke dashed" x1="308" x2="308" y1="208" y2="224"/>
</g>
<g>
<line class="fg_stroke dashed" x1="308" x2="308" y1="288" y2="304"/>
</g>
<g>
<line class="fg_stroke dashed" x1="340" x2="340" y1="32" y2="48"/>
</g>
<g>
<line class="fg_stroke dashed" x1="340" x2="340" y1="112" y2="128"/>
</g>
<g>
<line class="fg_stroke dashed" x1="340" x2="340" y1="160" y2="176"/>
</g>
<g>
<line class="fg_stroke dashed" x1="340" x2="340" y1="208" y2="224"/>
</g>
<g>
<line class="fg_stroke dashed" x1="340" x2="340" y1="288" y2="304"/>
</g>
<g>
<line class="fg_stroke dashed" x1="372" x2="372" y1="32" y2="48"/>
</g>
<g>
<line class="fg_stroke dashed" x1="372" x2="372" y1="112" y2="128"/>
</g>
<g>
<line class="fg_stroke dashed" x1="372" x2="372" y1="160" y2="176"/>
</g>
<g>
<line class="fg_stroke dashed" x1="372" x2="372" y1="208" y2="224"/>
</g>
<g>
<line class="fg_stroke dashed" x1="372" x2="372" y1="288" y2="304"/>
</g>
<g>
<line class="fg_stroke dashed" x1="404" x2="404" y1="32" y2="48"/>
</g>
<g>
<line class="fg_stroke dashed" x1="404" x2="404" y1="112" y2="128"/>
</g>
<g>
<line class="fg_stroke dashed" x1="404" x2="404" y1="160" y2="176"/>
</g>
<g>
<line class="fg_stroke dashed" x1="404" x2="404" y1="208" y2="224"/>
</g>
<g>
<line class="fg_stroke dashed" x1="404" x2="404" y1="288" y2="304"/>
</g>
<g>
<text class="fg_fill" x="17" y="44">
Master Key x=0
</text>
</g>
<g>
<text class="fg_fill" x="17" y="124">
Raw Share x=1
</text>
</g>
<g>
<text class="fg_fill" x="17" y="172">
Raw Share x=2
</text>
</g>
<g>
<text class="fg_fill" x="17" y="220">
Raw Share x=3
</text>
</g>
<g>
<text class="fg_fill" x="17" y="300">
Master Key x=0
</text>
</g>
<g>
<text class="fg_fill" x="49" y="12">
byte offset
</text>
</g>
<g>
<text class="fg_fill" x="105" y="76">
Split
</text>
</g>
<g>
<text class="fg_fill" x="105" y="252">
Join
</text>
</g>
<g>
<text class="fg_fill" x="193" y="12">
0
</text>
</g>
<g>
<text class="fg_fill" x="193" y="44">
A
</text>
</g>
<g>
<text class="fg_fill" x="193" y="124">
F
</text>
</g>
<g>
<text class="fg_fill" x="193" y="172">
T
</text>
</g>
<g>
<text class="fg_fill" x="193" y="220">
Q
</text>
</g>
<g>
<text class="fg_fill" x="193" y="300">
A
</text>
</g>
<g>
<text class="fg_fill" x="225" y="12">
1
</text>
</g>
<g>
<text class="fg_fill" x="225" y="44">
B
</text>
</g>
<g>
<text class="fg_fill" x="225" y="124">
A
</text>
</g>
<g>
<text class="fg_fill" x="225" y="172">
O
</text>
</g>
<g>
<text class="fg_fill" x="225" y="220">
B
</text>
</g>
<g>
<text class="fg_fill" x="225" y="300">
B
</text>
</g>
<g>
<text class="fg_fill" x="257" y="12">
2
</text>
</g>
<g>
<text class="fg_fill" x="257" y="44">
C
</text>
</g>
<g>
<text class="fg_fill" x="257" y="124">
Y
</text>
</g>
<g>
<text class="fg_fill" x="257" y="172">
H
</text>
</g>
<g>
<text class="fg_fill" x="257" y="220">
D
</text>
</g>
<g>
<text class="fg_fill" x="257" y="300">
C
</text>
</g>
<g>
<text class="fg_fill" x="289" y="12">
3
</text>
</g>
<g>
<text class="fg_fill" x="289" y="44">
D
</text>
</g>
<g>
<text class="fg_fill" x="289" y="124">
U
</text>
</g>
<g>
<text class="fg_fill" x="289" y="172">
N
</text>
</g>
<g>
<text class="fg_fill" x="289" y="220">
P
</text>
</g>
<g>
<text class="fg_fill" x="289" y="300">
D
</text>
</g>
<g>
<text class="fg_fill" x="321" y="12">
4
</text>
</g>
<g>
<text class="fg_fill" x="321" y="44">
E
</text>
</g>
<g>
<text class="fg_fill" x="321" y="124">
K
</text>
</g>
<g>
<text class="fg_fill" x="321" y="172">
T
</text>
</g>
<g>
<text class="fg_fill" x="321" y="220">
K
</text>
</g>
<g>
<text class="fg_fill" x="321" y="300">
E
</text>
</g>
<g>
<text class="fg_fill" x="353" y="12">
5
</text>
</g>
<g>
<text class="fg_fill" x="353" y="44">
F
</text>
</g>
<g>
<text class="fg_fill" x="353" y="124">
T
</text>
</g>
<g>
<text class="fg_fill" x="353" y="172">
D
</text>
</g>
<g>
<text class="fg_fill" x="353" y="220">
J
</text>
</g>
<g>
<text class="fg_fill" x="353" y="300">
F
</text>
</g>
<g>
<text class="fg_fill" x="385" y="12">
6
</text>
</g>
<g>
<text class="fg_fill" x="385" y="44">
G
</text>
</g>
<g>
<text class="fg_fill" x="385" y="124">
E
</text>
</g>
<g>
<text class="fg_fill" x="385" y="172">
V
</text>
</g>
<g>
<text class="fg_fill" x="385" y="220">
D
</text>
</g>
<g>
<text class="fg_fill" x="385" y="300">
G
</text>
</g>
<g>
<text class="fg_fill" x="417" y="12">
7
</text>
</g>
<g>
<text class="fg_fill" x="417" y="44">
H
</text>
</g>
<g>
<text class="fg_fill" x="417" y="124">
M
</text>
</g>
<g>
<text class="fg_fill" x="417" y="172">
W
</text>
</g>
<g>
<text class="fg_fill" x="417" y="220">
Z
</text>
</g>
<g>
<text class="fg_fill" x="417" y="300">
H
</text>
</g>
</svg>