<svg class="bob" font-family="arial" font-size="14" height="256" width="592" xmlns="http://www.w3.org/2000/svg">
<defs>
<marker id="triangle" markerHeight="8" markerWidth="8" orient="auto" refX="4" refY="2" viewBox="0 0 8 4">
<polygon class="fg_fill" points="0,0 0,4 8,2 0,0"/>
</marker>
<marker id="clear_triangle" markerHeight="10" markerWidth="10" orient="auto" refX="1" refY="7" viewBox="0 0 20 14">
<polygon class="bg_fill fg_stroke" points="2,2 2,12 18,7 2,2"/>
</marker>
<marker id="circle" markerHeight="5" markerWidth="5" orient="auto" refX="10" refY="10" viewBox="0 0 20 20">
<circle class="fg_fill" cx="10" cy="10" r="8"/>
</marker>
<marker id="square" markerHeight="5" markerWidth="5" orient="auto" refX="10" refY="10" viewBox="0 0 20 20">
<rect class="fg_fill" height="20" width="20" x="0" y="0"/>
</marker>
<marker id="open_circle" markerHeight="10" markerWidth="10" orient="auto" refX="10" refY="10" viewBox="0 0 20 20">
<circle class="bg_fill fg_stroke" cx="10" cy="10" r="4"/>
</marker>
<marker id="big_open_circle" markerHeight="20" markerWidth="20" orient="auto" refX="20" refY="20" viewBox="0 0 40 40">
<circle class="bg_fill fg_stroke" cx="20" cy="20" r="6"/>
</marker>
</defs>
<style type="text/css">

rect.backdrop {
    fill: white;
}

.fg_fill {
    fill: black;
}


.bg_fill {
    fill: white;
}

.fg_stroke {
    stroke: black;
    stroke-width: 2;
}

.no_fill {
    fill: none;
}

.dashed {
    stroke-dasharray: 5;
}


text{
    fill: black;
}

line, path {
    stroke-linecap: round;
    stroke-linejoin: miter;
    stroke-opacity: 1;
    fill-opacity: 1;
}




tspan.head{
    fill: none;
    stroke: none;
}
    
</style>
<rect class="backdrop" height="256" width="592" x="0" y="0"/>
<g>
<line class="fg_stroke" x1="4" x2="4" y1="28" y2="52"/>
<path class="fg_stroke no_fill" d="M 4 52 A 4 4 0 0 0 8 56"/>
<path class="fg_stroke no_fill" d="M 8 24 A 4 4 0 0 0 4 28"/>
</g>
<g>
<line class="fg_stroke" x1="4" x2="4" y1="76" y2="100"/>
<path class="fg_stroke no_fill" d="M 4 100 A 4 4 0 0 0 8 104"/>
<path class="fg_stroke no_fill" d="M 8 72 A 4 4 0 0 0 4 76"/>
</g>
<g>
<line class="fg_stroke" x1="4" x2="4" y1="124" y2="148"/>
<path class="fg_stroke no_fill" d="M 4 148 A 4 4 0 0 0 8 152"/>
<path class="fg_stroke no_fill" d="M 8 120 A 4 4 0 0 0 4 124"/>
</g>
<g>
<line class="fg_stroke" x1="4" x2="4" y1="172" y2="196"/>
<path class="fg_stroke no_fill" d="M 4 196 A 4 4 0 0 0 8 200"/>
<path class="fg_stroke no_fill" d="M 8 168 A 4 4 0 0 0 4 172"/>
</g>
<g>
<line class="fg_stroke" x1="4" x2="4" y1="220" y2="244"/>
<path class="fg_stroke no_fill" d="M 4 244 A 4 4 0 0 0 8 248"/>
<path class="fg_stroke no_fill" d="M 8 216 A 4 4 0 0 0 4 220"/>
</g>
<g>
<line class="fg_stroke" x1="8" x2="128" y1="24" y2="24"/>
<path class="fg_stroke no_fill" d="M 132 28 A 4 4 0 0 0 128 24"/>
</g>
<g>
<line class="fg_stroke" x1="8" x2="128" y1="56" y2="56"/>
<path class="fg_stroke no_fill" d="M 128 56 A 4 4 0 0 0 132 52"/>
</g>
<g>
<line class="fg_stroke" x1="8" x2="128" y1="72" y2="72"/>
<path class="fg_stroke no_fill" d="M 132 76 A 4 4 0 0 0 128 72"/>
</g>
<g>
<line class="fg_stroke" x1="8" x2="128" y1="104" y2="104"/>
<path class="fg_stroke no_fill" d="M 128 104 A 4 4 0 0 0 132 100"/>
</g>
<g>
<line class="fg_stroke" x1="8" x2="128" y1="120" y2="120"/>
<path class="fg_stroke no_fill" d="M 132 124 A 4 4 0 0 0 128 120"/>
</g>
<g>
<line class="fg_stroke" x1="8" x2="128" y1="152" y2="152"/>
<path class="fg_stroke no_fill" d="M 128 152 A 4 4 0 0 0 132 148"/>
</g>
<g>
<line class="fg_stroke" x1="8" x2="128" y1="168" y2="168"/>
<path class="fg_stroke no_fill" d="M 132 172 A 4 4 0 0 0 128 168"/>
</g>
<g>
<line class="fg_stroke" x1="8" x2="128" y1="200" y2="200"/>
<path class="fg_stroke no_fill" d="M 128 200 A 4 4 0 0 0 132 196"/>
</g>
<g>
<line class="fg_stroke" x1="8" x2="128" y1="216" y2="216"/>
<path class="fg_stroke no_fill" d="M 132 220 A 4 4 0 0 0 128 216"/>
</g>
<g>
<line class="fg_stroke" x1="8" x2="128" y1="248" y2="248"/>
<path class="fg_stroke no_fill" d="M 128 248 A 4 4 0 0 0 132 244"/>
</g>
<g>
<line class="fg_stroke" x1="132" x2="132" y1="28" y2="32"/>
</g>
<g>
<line class="fg_stroke" x1="132" x2="132" y1="52" y2="48"/>
</g>
<g>
<line class="fg_stroke" x1="132" x2="132" y1="76" y2="80"/>
</g>
<g>
<line class="fg_stroke" x1="132" x2="132" y1="100" y2="96"/>
</g>
<g>
<line class="fg_stroke" x1="132" x2="132" y1="124" y2="128"/>
</g>
<g>
<line class="fg_stroke" x1="132" x2="132" y1="148" y2="144"/>
</g>
<g>
<line class="fg_stroke" x1="132" x2="132" y1="172" y2="184"/>
<line class="fg_stroke" x1="132" x2="132" y1="184" y2="196"/>
<line class="fg_stroke" x1="132" x2="136" y1="184" y2="184"/>
<line class="fg_stroke dashed" x1="136" x2="152" y1="184" y2="184"/>
<path class="fg_stroke no_fill" d="M 156 188 A 4 4 0 0 0 152 184"/>
</g>
<g>
<line class="fg_stroke" x1="132" x2="132" y1="220" y2="232"/>
<line class="fg_stroke" x1="132" x2="132" y1="232" y2="244"/>
<line class="fg_stroke" x1="132" x2="136" y1="232" y2="232"/>
<line class="fg_stroke dashed" x1="136" x2="176" y1="232" y2="232"/>
</g>
<g>
<line class="fg_stroke" x1="156" x2="156" y1="188" y2="192"/>
<line class="fg_stroke dashed" x1="156" x2="156" y1="192" y2="224"/>
</g>
<g>
<line class="fg_stroke" x1="182" x2="204" y1="44" y2="88"/>
<line class="fg_stroke" x1="204" x2="182" y1="88" y2="132"/>
<line class="fg_stroke" marker-end="url(#triangle)" x1="204" x2="236" y1="88" y2="88"/>
<path class="fg_stroke no_fill" d="M 176 136 A 8 8 0 0 0 182 132"/>
<path class="fg_stroke no_fill" d="M 182 44 A 8 8 0 0 0 176 40"/>
<line class="fg_stroke" marker-start="url(#big_open_circle)" x1="132" x2="176" y1="40" y2="40"/>
<line class="fg_stroke" marker-start="url(#big_open_circle)" x1="132" x2="204" y1="88" y2="88"/>
<line class="fg_stroke" marker-start="url(#big_open_circle)" x1="132" x2="176" y1="136" y2="136"/>
</g>
<g>
<line class="fg_stroke" x1="228" x2="228" y1="28" y2="32"/>
<line class="fg_stroke dashed" x1="228" x2="228" y1="32" y2="80"/>
</g>
<g>
<line class="fg_stroke" x1="252" x2="252" y1="60" y2="88"/>
<line class="fg_stroke" x1="252" x2="252" y1="88" y2="116"/>
<line class="fg_stroke" x1="252" x2="388" y1="88" y2="88"/>
<line class="fg_stroke" x1="388" x2="388" y1="88" y2="80"/>
<line class="fg_stroke" x1="388" x2="388" y1="88" y2="96"/>
<path class="fg_stroke no_fill" d="M 252 116 A 4 4 0 0 0 256 120"/>
<path class="fg_stroke no_fill" d="M 256 56 A 4 4 0 0 0 252 60"/>
</g>
<g>
<line class="fg_stroke" x1="256" x2="384" y1="56" y2="56"/>
<path class="fg_stroke no_fill" d="M 388 60 A 4 4 0 0 0 384 56"/>
</g>
<g>
<line class="fg_stroke" x1="256" x2="384" y1="120" y2="120"/>
<path class="fg_stroke no_fill" d="M 384 120 A 4 4 0 0 0 388 116"/>
</g>
<g>
<line class="fg_stroke" x1="388" x2="388" y1="60" y2="64"/>
</g>
<g>
<line class="fg_stroke" x1="388" x2="388" y1="116" y2="112"/>
</g>
<g>
<line class="fg_stroke" x1="428" x2="414" y1="72" y2="100"/>
<line class="fg_stroke" marker-end="url(#triangle)" x1="428" x2="460" y1="72" y2="72"/>
<path class="fg_stroke no_fill" d="M 408 104 A 8 8 0 0 0 414 100"/>
<line class="fg_stroke" marker-start="url(#big_open_circle)" x1="388" x2="428" y1="72" y2="72"/>
<line class="fg_stroke" marker-start="url(#big_open_circle)" x1="388" x2="408" y1="104" y2="104"/>
</g>
<g>
<line class="fg_stroke" x1="468" x2="468" y1="60" y2="84"/>
<path class="fg_stroke no_fill" d="M 468 84 A 4 4 0 0 0 472 88"/>
<path class="fg_stroke no_fill" d="M 472 56 A 4 4 0 0 0 468 60"/>
</g>
<g>
<line class="fg_stroke" x1="472" x2="568" y1="56" y2="56"/>
<path class="fg_stroke no_fill" d="M 572 60 A 4 4 0 0 0 568 56"/>
</g>
<g>
<line class="fg_stroke" x1="472" x2="568" y1="88" y2="88"/>
<path class="fg_stroke no_fill" d="M 568 88 A 4 4 0 0 0 572 84"/>
</g>
<g>
<line class="fg_stroke" x1="572" x2="572" y1="60" y2="84"/>
</g>
<g>
<line class="fg_stroke dashed" x1="156" x2="156" y1="160" y2="176"/>
</g>
<g>
<line class="fg_stroke dashed" x1="332" x2="332" y1="128" y2="160"/>
</g>
<g>
<line class="fg_stroke dashed" x1="452" x2="452" y1="32" y2="64"/>
</g>
<g>
<text class="fg_fill" x="33" y="44">
Share 1/5
</text>
</g>
<g>
<text class="fg_fill" x="33" y="92">
Share 2/5
</text>
</g>
<g>
<text class="fg_fill" x="33" y="140">
Share 3/5
</text>
</g>
<g>
<text class="fg_fill" x="33" y="188">
Share 4/5
</text>
</g>
<g>
<text class="fg_fill" x="33" y="236">
Share 5/5
</text>
</g>
<g>
<text class="fg_fill" x="145" y="12">
Recovery from 3 of 5 Backup Shares
</text>
</g>
<g>
<text class="fg_fill" x="177" y="220">
Distributed at Secure Locations
</text>
</g>
<g>
<text class="fg_fill" x="177" y="236">
and/or with Trusted People
</text>
</g>
<g>
<text class="fg_fill" x="257" y="172">
Known Only by Wallet Owner
</text>
</g>
<g>
<text class="fg_fill" x="289" y="108">
Brainkey
</text>
</g>
<g>
<text class="fg_fill" x="305" y="76">
Salt
</text>
</g>
<g>
<text class="fg_fill" x="377" y="28">
Load Wallet (Regular Use)
</text>
</g>
<g>
<text class="fg_fill" x="497" y="76">
Wallet
</text>
</g>
</svg>