<svg class="bob" font-family="arial" font-size="14" height="688" width="464" xmlns="http://www.w3.org/2000/svg">
<defs>
<marker id="triangle" markerHeight="8" markerWidth="8" orient="auto" refX="4" refY="2" viewBox="0 0 8 4">
<polygon class="fg_fill" points="0,0 0,4 8,2 0,0"/>
</marker>
<marker id="clear_triangle" markerHeight="10" markerWidth="10" orient="auto" refX="1" refY="7" viewBox="0 0 20 14">
<polygon class="bg_fill fg_stroke" points="2,2 2,12 18,7 2,2"/>
</marker>
<marker id="circle" markerHeight="5" markerWidth="5" orient="auto" refX="10" refY="10" viewBox="0 0 20 20">
<circle class="fg_fill" cx="10" cy="10" r="8"/>
</marker>
<marker id="square" markerHeight="5" markerWidth="5" orient="auto" refX="10" refY="10" viewBox="0 0 20 20">
<rect class="fg_fill" height="20" width="20" x="0" y="0"/>
</marker>
<marker id="open_circle" markerHeight="10" markerWidth="10" orient="auto" refX="10" refY="10" viewBox="0 0 20 20">
<circle class="bg_fill fg_stroke" cx="10" cy="10" r="4"/>
</marker>
<marker id="big_open_circle" markerHeight="20" markerWidth="20" orient="auto" refX="20" refY="20" viewBox="0 0 40 40">
<circle class="bg_fill fg_stroke" cx="20" cy="20" r="6"/>
</marker>
</defs>
<style type="text/css">

rect.backdrop {
    fill: white;
}

.fg_fill {
    fill: black;
}


.bg_fill {
    fill: white;
}

.fg_stroke {
    stroke: black;
    stroke-width: 2;
}

.no_fill {
    fill: none;
}

.dashed {
    stroke-dasharray: 5;
}


text{
    fill: black;
}

line, path {
    stroke-linecap: round;
    stroke-linejoin: miter;
    stroke-opacity: 1;
    fill-opacity: 1;
}




tspan.head{
    fill: none;
    stroke: none;
}
    
</style>
<rect class="backdrop" height="688" width="464" x="0" y="0"/>
<g>
<line class="fg_stroke" x1="12" x2="12" y1="284" y2="308"/>
<path class="fg_stroke no_fill" d="M 12 308 A 4 4 0 0 0 16 312"/>
<path class="fg_stroke no_fill" d="M 16 280 A 4 4 0 0 0 12 284"/>
</g>
<g>
<line class="fg_stroke" x1="16" x2="28" y1="280" y2="280"/>
<line class="fg_stroke" x1="28" x2="28" y1="268" y2="280"/>
<line class="fg_stroke" x1="28" x2="28" y1="280" y2="292"/>
<path class="fg_stroke no_fill" d="M 28 292 A 4 4 0 0 0 32 296"/>
<path class="fg_stroke no_fill" d="M 32 264 A 4 4 0 0 0 28 268"/>
</g>
<g>
<line class="fg_stroke" x1="16" x2="160" y1="312" y2="312"/>
<path class="fg_stroke no_fill" d="M 160 312 A 4 4 0 0 0 164 308"/>
</g>
<g>
<line class="fg_stroke" x1="20" x2="20" y1="108" y2="136"/>
<line class="fg_stroke" x1="20" x2="20" y1="136" y2="164"/>
<line class="fg_stroke" x1="20" x2="180" y1="136" y2="136"/>
<line class="fg_stroke" x1="180" x2="180" y1="136" y2="128"/>
<line class="fg_stroke" x1="180" x2="180" y1="136" y2="144"/>
<path class="fg_stroke no_fill" d="M 20 164 A 4 4 0 0 0 24 168"/>
<path class="fg_stroke no_fill" d="M 24 104 A 4 4 0 0 0 20 108"/>
</g>
<g>
<line class="fg_stroke" x1="20" x2="20" y1="428" y2="456"/>
<line class="fg_stroke" x1="20" x2="20" y1="456" y2="484"/>
<line class="fg_stroke" x1="20" x2="180" y1="456" y2="456"/>
<line class="fg_stroke" x1="180" x2="180" y1="456" y2="448"/>
<line class="fg_stroke" x1="180" x2="180" y1="456" y2="464"/>
<path class="fg_stroke no_fill" d="M 20 484 A 4 4 0 0 0 24 488"/>
<path class="fg_stroke no_fill" d="M 24 424 A 4 4 0 0 0 20 428"/>
</g>
<g>
<line class="fg_stroke" x1="20" x2="20" y1="508" y2="532"/>
<path class="fg_stroke no_fill" d="M 20 532 A 4 4 0 0 0 24 536"/>
<path class="fg_stroke no_fill" d="M 24 504 A 4 4 0 0 0 20 508"/>
</g>
<g>
<line class="fg_stroke" x1="24" x2="176" y1="104" y2="104"/>
<path class="fg_stroke no_fill" d="M 180 108 A 4 4 0 0 0 176 104"/>
</g>
<g>
<line class="fg_stroke" x1="24" x2="176" y1="168" y2="168"/>
<path class="fg_stroke no_fill" d="M 176 168 A 4 4 0 0 0 180 164"/>
</g>
<g>
<line class="fg_stroke" x1="24" x2="176" y1="424" y2="424"/>
<path class="fg_stroke no_fill" d="M 180 428 A 4 4 0 0 0 176 424"/>
</g>
<g>
<line class="fg_stroke" x1="24" x2="176" y1="488" y2="488"/>
<path class="fg_stroke no_fill" d="M 176 488 A 4 4 0 0 0 180 484"/>
</g>
<g>
<line class="fg_stroke" x1="24" x2="176" y1="504" y2="504"/>
<path class="fg_stroke no_fill" d="M 180 508 A 4 4 0 0 0 176 504"/>
</g>
<g>
<line class="fg_stroke" x1="24" x2="176" y1="536" y2="536"/>
<path class="fg_stroke no_fill" d="M 176 536 A 4 4 0 0 0 180 532"/>
</g>
<g>
<line class="fg_stroke" x1="32" x2="176" y1="264" y2="264"/>
<path class="fg_stroke no_fill" d="M 180 268 A 4 4 0 0 0 176 264"/>
</g>
<g>
<line class="fg_stroke" x1="32" x2="164" y1="296" y2="296"/>
<line class="fg_stroke" x1="164" x2="164" y1="296" y2="308"/>
<line class="fg_stroke" x1="164" x2="176" y1="296" y2="296"/>
<path class="fg_stroke no_fill" d="M 176 296 A 4 4 0 0 0 180 292"/>
</g>
<g>
<line class="fg_stroke" marker-end="url(#triangle)" x1="100" x2="100" y1="76" y2="92"/>
<path class="fg_stroke no_fill" d="M 104 72 A 4 4 0 0 0 100 76"/>
<line class="fg_stroke" marker-end="url(#big_open_circle)" x1="104" x2="244" y1="72" y2="72"/>
</g>
<g>
<line class="fg_stroke" marker-end="url(#triangle)" x1="108" x2="108" y1="220" y2="252"/>
<path class="fg_stroke no_fill" d="M 112 216 A 4 4 0 0 0 108 220"/>
</g>
<g>
<line class="fg_stroke" marker-end="url(#triangle)" x1="108" x2="108" y1="380" y2="412"/>
<path class="fg_stroke no_fill" d="M 112 376 A 4 4 0 0 0 108 380"/>
</g>
<g>
<line class="fg_stroke" x1="112" x2="296" y1="216" y2="216"/>
<path class="fg_stroke no_fill" d="M 296 216 A 8 8 0 0 0 302 212"/>
</g>
<g>
<line class="fg_stroke" x1="112" x2="296" y1="376" y2="376"/>
<path class="fg_stroke no_fill" d="M 296 376 A 8 8 0 0 0 302 372"/>
</g>
<g>
<line class="fg_stroke" x1="180" x2="180" y1="108" y2="112"/>
</g>
<g>
<line class="fg_stroke" x1="180" x2="180" y1="164" y2="160"/>
</g>
<g>
<line class="fg_stroke" x1="180" x2="180" y1="268" y2="272"/>
</g>
<g>
<line class="fg_stroke" x1="180" x2="180" y1="292" y2="288"/>
</g>
<g>
<line class="fg_stroke" x1="180" x2="180" y1="428" y2="432"/>
</g>
<g>
<line class="fg_stroke" x1="180" x2="180" y1="484" y2="480"/>
</g>
<g>
<line class="fg_stroke" x1="180" x2="180" y1="508" y2="512"/>
</g>
<g>
<line class="fg_stroke" x1="180" x2="180" y1="532" y2="528"/>
</g>
<g>
<line class="fg_stroke" x1="230" x2="240" y1="516" y2="496"/>
<line class="fg_stroke" x1="244" x2="240" y1="488" y2="496"/>
<path class="fg_stroke no_fill" d="M 224 520 A 8 8 0 0 0 230 516"/>
<line class="fg_stroke" marker-start="url(#big_open_circle)" x1="180" x2="224" y1="520" y2="520"/>
</g>
<g>
<line class="fg_stroke" x1="236" x2="236" y1="556" y2="580"/>
<path class="fg_stroke no_fill" d="M 236 580 A 4 4 0 0 0 240 584"/>
<path class="fg_stroke no_fill" d="M 240 552 A 4 4 0 0 0 236 556"/>
<line class="fg_stroke" marker-end="url(#big_open_circle)" x1="240" x2="316" y1="584" y2="584"/>
<line class="fg_stroke" marker-start="url(#big_open_circle)" x1="316" x2="316" y1="584" y2="616"/>
<line class="fg_stroke" marker-start="url(#big_open_circle)" x1="316" x2="400" y1="584" y2="584"/>
</g>
<g>
<line class="fg_stroke" x1="240" x2="400" y1="552" y2="552"/>
<path class="fg_stroke no_fill" d="M 404 556 A 4 4 0 0 0 400 552"/>
</g>
<g>
<line class="fg_stroke" x1="244" x2="244" y1="60" y2="64"/>
<path class="fg_stroke no_fill" d="M 248 56 A 4 4 0 0 0 244 60"/>
</g>
<g>
<line class="fg_stroke" x1="244" x2="244" y1="84" y2="80"/>
<path class="fg_stroke no_fill" d="M 244 84 A 4 4 0 0 0 248 88"/>
</g>
<g>
<line class="fg_stroke" x1="244" x2="230" y1="120" y2="148"/>
<line class="fg_stroke" x1="244" x2="296" y1="120" y2="120"/>
<path class="fg_stroke no_fill" d="M 224 152 A 8 8 0 0 0 230 148"/>
<path class="fg_stroke no_fill" d="M 302 124 A 8 8 0 0 0 296 120"/>
<line class="fg_stroke" marker-start="url(#big_open_circle)" x1="180" x2="244" y1="120" y2="120"/>
<line class="fg_stroke" marker-start="url(#big_open_circle)" x1="180" x2="224" y1="152" y2="152"/>
</g>
<g>
<line class="fg_stroke" x1="244" x2="244" y1="152" y2="184"/>
<line class="fg_stroke" x1="244" x2="316" y1="152" y2="152"/>
<line class="fg_stroke" x1="244" x2="316" y1="184" y2="184"/>
<line class="fg_stroke" x1="302" x2="316" y1="124" y2="152"/>
<line class="fg_stroke" x1="316" x2="388" y1="152" y2="152"/>
<line class="fg_stroke" x1="316" x2="302" y1="184" y2="212"/>
<line class="fg_stroke" x1="316" x2="388" y1="184" y2="184"/>
<line class="fg_stroke" x1="388" x2="388" y1="152" y2="184"/>
</g>
<g>
<line class="fg_stroke" x1="244" x2="244" y1="312" y2="344"/>
<line class="fg_stroke" x1="244" x2="316" y1="312" y2="312"/>
<line class="fg_stroke" x1="244" x2="316" y1="344" y2="344"/>
<line class="fg_stroke" x1="302" x2="316" y1="284" y2="312"/>
<line class="fg_stroke" x1="316" x2="388" y1="312" y2="312"/>
<line class="fg_stroke" x1="316" x2="302" y1="344" y2="372"/>
<line class="fg_stroke" x1="316" x2="388" y1="344" y2="344"/>
<line class="fg_stroke" x1="388" x2="388" y1="312" y2="344"/>
<path class="fg_stroke no_fill" d="M 302 284 A 8 8 0 0 0 296 280"/>
<line class="fg_stroke" marker-start="url(#big_open_circle)" x1="180" x2="296" y1="280" y2="280"/>
</g>
<g>
<line class="fg_stroke" x1="244" x2="230" y1="440" y2="468"/>
<line class="fg_stroke" x1="244" x2="244" y1="440" y2="480"/>
<line class="fg_stroke" x1="244" x2="296" y1="440" y2="440"/>
<line class="fg_stroke" x1="244" x2="244" y1="480" y2="488"/>
<path class="fg_stroke no_fill" d="M 224 472 A 8 8 0 0 0 230 468"/>
<path class="fg_stroke no_fill" d="M 302 444 A 8 8 0 0 0 296 440"/>
<line class="fg_stroke" marker-start="url(#big_open_circle)" x1="180" x2="244" y1="440" y2="440"/>
<line class="fg_stroke" marker-start="url(#big_open_circle)" x1="180" x2="224" y1="472" y2="472"/>
</g>
<g>
<line class="fg_stroke" x1="248" x2="416" y1="56" y2="56"/>
<path class="fg_stroke no_fill" d="M 420 60 A 4 4 0 0 0 416 56"/>
</g>
<g>
<line class="fg_stroke" x1="248" x2="416" y1="88" y2="88"/>
<path class="fg_stroke no_fill" d="M 416 88 A 4 4 0 0 0 420 84"/>
</g>
<g>
<line class="fg_stroke" x1="252" x2="252" y1="616" y2="680"/>
<line class="fg_stroke" x1="252" x2="316" y1="616" y2="616"/>
<line class="fg_stroke" x1="252" x2="380" y1="680" y2="680"/>
<line class="fg_stroke" x1="316" x2="380" y1="616" y2="616"/>
<line class="fg_stroke" x1="380" x2="380" y1="616" y2="680"/>
</g>
<g>
<line class="fg_stroke" x1="268" x2="268" y1="472" y2="488"/>
<line class="fg_stroke" x1="268" x2="316" y1="472" y2="472"/>
<line class="fg_stroke" x1="268" x2="268" y1="488" y2="504"/>
<line class="fg_stroke" x1="268" x2="316" y1="504" y2="504"/>
<line class="fg_stroke" x1="302" x2="316" y1="444" y2="472"/>
<line class="fg_stroke" x1="316" x2="372" y1="472" y2="472"/>
<line class="fg_stroke" marker-end="url(#triangle)" x1="316" x2="316" y1="504" y2="540"/>
<line class="fg_stroke" x1="316" x2="372" y1="504" y2="504"/>
<line class="fg_stroke" x1="372" x2="372" y1="472" y2="504"/>
</g>
<g>
<line class="fg_stroke" x1="404" x2="404" y1="556" y2="580"/>
<path class="fg_stroke no_fill" d="M 400 584 A 4 4 0 0 0 404 580"/>
</g>
<g>
<line class="fg_stroke" x1="420" x2="420" y1="60" y2="84"/>
</g>
<g>
<text class="fg_fill" x="1" y="236">
.
</text>
</g>
<g>
<text class="fg_fill" x="1" y="396">
.
</text>
</g>
<g>
<text class="fg_fill" x="17" y="28">
User Visible Data
</text>
</g>
<g>
<text class="fg_fill" x="17" y="236">
.
</text>
</g>
<g>
<text class="fg_fill" x="17" y="396">
.
</text>
</g>
<g>
<text class="fg_fill" x="33" y="236">
.
</text>
</g>
<g>
<text class="fg_fill" x="33" y="396">
.
</text>
</g>
<g>
<text class="fg_fill" x="33" y="524">
Wallet Name {n}
</text>
</g>
<g>
<text class="fg_fill" x="49" y="236">
.
</text>
</g>
<g>
<text class="fg_fill" x="49" y="396">
.
</text>
</g>
<g>
<text class="fg_fill" x="57" y="284">
Share 1..n
</text>
</g>
<g>
<text class="fg_fill" x="65" y="156">
Brainkey
</text>
</g>
<g>
<text class="fg_fill" x="65" y="236">
.
</text>
</g>
<g>
<text class="fg_fill" x="65" y="396">
.
</text>
</g>
<g>
<text class="fg_fill" x="65" y="476">
Brainkey
</text>
</g>
<g>
<text class="fg_fill" x="81" y="124">
Salt
</text>
</g>
<g>
<text class="fg_fill" x="81" y="236">
.
</text>
</g>
<g>
<text class="fg_fill" x="81" y="396">
.
</text>
</g>
<g>
<text class="fg_fill" x="81" y="444">
Salt
</text>
</g>
<g>
<text class="fg_fill" x="97" y="236">
.
</text>
</g>
<g>
<text class="fg_fill" x="97" y="396">
.
</text>
</g>
<g>
<text class="fg_fill" x="113" y="236">
.
</text>
</g>
<g>
<text class="fg_fill" x="113" y="396">
.
</text>
</g>
<g>
<text class="fg_fill" x="129" y="236">
.
</text>
</g>
<g>
<text class="fg_fill" x="129" y="396">
.
</text>
</g>
<g>
<text class="fg_fill" x="145" y="236">
.
</text>
</g>
<g>
<text class="fg_fill" x="145" y="396">
.
</text>
</g>
<g>
<text class="fg_fill" x="161" y="236">
.
</text>
</g>
<g>
<text class="fg_fill" x="161" y="396">
.
</text>
</g>
<g>
<text class="fg_fill" x="177" y="236">
.
</text>
</g>
<g>
<text class="fg_fill" x="177" y="396">
.
</text>
</g>
<g>
<text class="fg_fill" x="193" y="236">
.
</text>
</g>
<g>
<text class="fg_fill" x="193" y="396">
.
</text>
</g>
<g>
<text class="fg_fill" x="209" y="28">
.
</text>
</g>
<g>
<text class="fg_fill" x="209" y="44">
.
</text>
</g>
<g>
<text class="fg_fill" x="209" y="60">
.
</text>
</g>
<g>
<text class="fg_fill" x="209" y="92">
.
</text>
</g>
<g>
<text class="fg_fill" x="209" y="108">
.
</text>
</g>
<g>
<text class="fg_fill" x="209" y="140">
.
</text>
</g>
<g>
<text class="fg_fill" x="209" y="172">
.
</text>
</g>
<g>
<text class="fg_fill" x="209" y="188">
.
</text>
</g>
<g>
<text class="fg_fill" x="209" y="204">
.
</text>
</g>
<g>
<text class="fg_fill" x="209" y="236">
.
</text>
</g>
<g>
<text class="fg_fill" x="209" y="252">
.
</text>
</g>
<g>
<text class="fg_fill" x="209" y="268">
.
</text>
</g>
<g>
<text class="fg_fill" x="209" y="300">
.
</text>
</g>
<g>
<text class="fg_fill" x="209" y="316">
.
</text>
</g>
<g>
<text class="fg_fill" x="209" y="332">
.
</text>
</g>
<g>
<text class="fg_fill" x="209" y="348">
.
</text>
</g>
<g>
<text class="fg_fill" x="209" y="364">
.
</text>
</g>
<g>
<text class="fg_fill" x="209" y="396">
.
</text>
</g>
<g>
<text class="fg_fill" x="209" y="412">
.
</text>
</g>
<g>
<text class="fg_fill" x="209" y="428">
.
</text>
</g>
<g>
<text class="fg_fill" x="209" y="460">
.
</text>
</g>
<g>
<text class="fg_fill" x="209" y="492">
.
</text>
</g>
<g>
<text class="fg_fill" x="209" y="508">
.
</text>
</g>
<g>
<text class="fg_fill" x="209" y="540">
.
</text>
</g>
<g>
<text class="fg_fill" x="209" y="556">
.
</text>
</g>
<g>
<text class="fg_fill" x="209" y="572">
.
</text>
</g>
<g>
<text class="fg_fill" x="209" y="588">
.
</text>
</g>
<g>
<text class="fg_fill" x="209" y="604">
.
</text>
</g>
<g>
<text class="fg_fill" x="209" y="620">
.
</text>
</g>
<g>
<text class="fg_fill" x="209" y="636">
.
</text>
</g>
<g>
<text class="fg_fill" x="209" y="652">
.
</text>
</g>
<g>
<text class="fg_fill" x="209" y="668">
.
</text>
</g>
<g>
<text class="fg_fill" x="209" y="684">
.
</text>
</g>
<g>
<text class="fg_fill" x="225" y="236">
.
</text>
</g>
<g>
<text class="fg_fill" x="225" y="396">
.
</text>
</g>
<g>
<text class="fg_fill" x="241" y="236">
.
</text>
</g>
<g>
<text class="fg_fill" x="241" y="396">
.
</text>
</g>
<g>
<text class="fg_fill" x="257" y="572">
Wallet Seed {n}
</text>
</g>
<g>
<text class="fg_fill" x="265" y="76">
System Randomness
</text>
</g>
<g>
<text class="fg_fill" x="265" y="172">
Shamir Split
</text>
</g>
<g>
<text class="fg_fill" x="265" y="236">
.
</text>
</g>
<g>
<text class="fg_fill" x="265" y="332">
Shamir Join
</text>
</g>
<g>
<text class="fg_fill" x="265" y="396">
.
</text>
</g>
<g>
<text class="fg_fill" x="281" y="236">
.
</text>
</g>
<g>
<text class="fg_fill" x="281" y="396">
.
</text>
</g>
<g>
<text class="fg_fill" x="289" y="652">
Electrum
</text>
</g>
<g>
<text class="fg_fill" x="297" y="236">
.
</text>
</g>
<g>
<text class="fg_fill" x="297" y="396">
.
</text>
</g>
<g>
<text class="fg_fill" x="305" y="492">
KDF
</text>
</g>
<g>
<text class="fg_fill" x="313" y="28">
1. Key Generation
</text>
</g>
<g>
<text class="fg_fill" x="313" y="236">
.
</text>
</g>
<g>
<text class="fg_fill" x="313" y="268">
2. Key Recovery
</text>
</g>
<g>
<text class="fg_fill" x="313" y="396">
.
</text>
</g>
<g>
<text class="fg_fill" x="313" y="428">
3. Load Wallet
</text>
</g>
<g>
<text class="fg_fill" x="329" y="236">
.
</text>
</g>
<g>
<text class="fg_fill" x="329" y="396">
.
</text>
</g>
<g>
<text class="fg_fill" x="345" y="236">
.
</text>
</g>
<g>
<text class="fg_fill" x="345" y="396">
.
</text>
</g>
<g>
<text class="fg_fill" x="361" y="236">
.
</text>
</g>
<g>
<text class="fg_fill" x="361" y="396">
.
</text>
</g>
<g>
<text class="fg_fill" x="377" y="236">
.
</text>
</g>
<g>
<text class="fg_fill" x="377" y="396">
.
</text>
</g>
<g>
<text class="fg_fill" x="393" y="236">
.
</text>
</g>
<g>
<text class="fg_fill" x="393" y="396">
.
</text>
</g>
<g>
<text class="fg_fill" x="409" y="236">
.
</text>
</g>
<g>
<text class="fg_fill" x="409" y="396">
.
</text>
</g>
<g>
<text class="fg_fill" x="425" y="236">
.
</text>
</g>
<g>
<text class="fg_fill" x="425" y="396">
.
</text>
</g>
<g>
<text class="fg_fill" x="441" y="236">
.
</text>
</g>
<g>
<text class="fg_fill" x="441" y="396">
.
</text>
</g>
<g>
<text class="fg_fill" x="457" y="236">
.
</text>
</g>
<g>
<text class="fg_fill" x="457" y="396">
.
</text>
</g>
</svg>