<svg class="bob" font-family="arial" font-size="14" height="256" width="664" xmlns="http://www.w3.org/2000/svg">
<defs>
<marker id="triangle" markerHeight="8" markerWidth="8" orient="auto" refX="4" refY="2" viewBox="0 0 8 4">
<polygon class="fg_fill" points="0,0 0,4 8,2 0,0"/>
</marker>
<marker id="clear_triangle" markerHeight="10" markerWidth="10" orient="auto" refX="1" refY="7" viewBox="0 0 20 14">
<polygon class="bg_fill fg_stroke" points="2,2 2,12 18,7 2,2"/>
</marker>
<marker id="circle" markerHeight="5" markerWidth="5" orient="auto" refX="10" refY="10" viewBox="0 0 20 20">
<circle class="fg_fill" cx="10" cy="10" r="8"/>
</marker>
<marker id="square" markerHeight="5" markerWidth="5" orient="auto" refX="10" refY="10" viewBox="0 0 20 20">
<rect class="fg_fill" height="20" width="20" x="0" y="0"/>
</marker>
<marker id="open_circle" markerHeight="10" markerWidth="10" orient="auto" refX="10" refY="10" viewBox="0 0 20 20">
<circle class="bg_fill fg_stroke" cx="10" cy="10" r="4"/>
</marker>
<marker id="big_open_circle" markerHeight="20" markerWidth="20" orient="auto" refX="20" refY="20" viewBox="0 0 40 40">
<circle class="bg_fill fg_stroke" cx="20" cy="20" r="6"/>
</marker>
</defs>
<style type="text/css">

rect.backdrop {
    fill: white;
}

.fg_fill {
    fill: black;
}


.bg_fill {
    fill: white;
}

.fg_stroke {
    stroke: black;
    stroke-width: 2;
}

.no_fill {
    fill: none;
}

.dashed {
    stroke-dasharray: 5;
}


text{
    fill: black;
}

line, path {
    stroke-linecap: round;
    stroke-linejoin: miter;
    stroke-opacity: 1;
    fill-opacity: 1;
}




tspan.head{
    fill: none;
    stroke: none;
}
    
</style>
<rect class="backdrop" height="256" width="664" x="0" y="0"/>
<g>
<line class="fg_stroke" x1="20" x2="20" y1="28" y2="52"/>
<path class="fg_stroke no_fill" d="M 20 52 A 4 4 0 0 0 24 56"/>
<path class="fg_stroke no_fill" d="M 24 24 A 4 4 0 0 0 20 28"/>
</g>
<g>
<line class="fg_stroke" x1="20" x2="20" y1="76" y2="100"/>
<path class="fg_stroke no_fill" d="M 20 100 A 4 4 0 0 0 24 104"/>
<path class="fg_stroke no_fill" d="M 24 72 A 4 4 0 0 0 20 76"/>
</g>
<g>
<line class="fg_stroke" x1="20" x2="20" y1="124" y2="148"/>
<path class="fg_stroke no_fill" d="M 20 148 A 4 4 0 0 0 24 152"/>
<path class="fg_stroke no_fill" d="M 24 120 A 4 4 0 0 0 20 124"/>
</g>
<g>
<line class="fg_stroke" x1="20" x2="20" y1="172" y2="196"/>
<path class="fg_stroke no_fill" d="M 20 196 A 4 4 0 0 0 24 200"/>
<path class="fg_stroke no_fill" d="M 24 168 A 4 4 0 0 0 20 172"/>
</g>
<g>
<line class="fg_stroke" x1="20" x2="20" y1="220" y2="244"/>
<path class="fg_stroke no_fill" d="M 20 244 A 4 4 0 0 0 24 248"/>
<path class="fg_stroke no_fill" d="M 24 216 A 4 4 0 0 0 20 220"/>
</g>
<g>
<line class="fg_stroke" x1="24" x2="176" y1="24" y2="24"/>
<path class="fg_stroke no_fill" d="M 180 28 A 4 4 0 0 0 176 24"/>
</g>
<g>
<line class="fg_stroke" x1="24" x2="176" y1="56" y2="56"/>
<path class="fg_stroke no_fill" d="M 176 56 A 4 4 0 0 0 180 52"/>
</g>
<g>
<line class="fg_stroke" x1="24" x2="176" y1="72" y2="72"/>
<path class="fg_stroke no_fill" d="M 180 76 A 4 4 0 0 0 176 72"/>
</g>
<g>
<line class="fg_stroke" x1="24" x2="176" y1="104" y2="104"/>
<path class="fg_stroke no_fill" d="M 176 104 A 4 4 0 0 0 180 100"/>
</g>
<g>
<line class="fg_stroke" x1="24" x2="176" y1="120" y2="120"/>
<path class="fg_stroke no_fill" d="M 180 124 A 4 4 0 0 0 176 120"/>
</g>
<g>
<line class="fg_stroke" x1="24" x2="176" y1="152" y2="152"/>
<path class="fg_stroke no_fill" d="M 176 152 A 4 4 0 0 0 180 148"/>
</g>
<g>
<line class="fg_stroke" x1="24" x2="176" y1="168" y2="168"/>
<path class="fg_stroke no_fill" d="M 180 172 A 4 4 0 0 0 176 168"/>
</g>
<g>
<line class="fg_stroke" x1="24" x2="176" y1="200" y2="200"/>
<path class="fg_stroke no_fill" d="M 176 200 A 4 4 0 0 0 180 196"/>
</g>
<g>
<line class="fg_stroke" x1="24" x2="176" y1="216" y2="216"/>
<path class="fg_stroke no_fill" d="M 180 220 A 4 4 0 0 0 176 216"/>
</g>
<g>
<line class="fg_stroke" x1="24" x2="176" y1="248" y2="248"/>
<path class="fg_stroke no_fill" d="M 176 248 A 4 4 0 0 0 180 244"/>
</g>
<g>
<line class="fg_stroke" x1="180" x2="180" y1="28" y2="32"/>
</g>
<g>
<line class="fg_stroke" x1="180" x2="180" y1="52" y2="48"/>
</g>
<g>
<line class="fg_stroke" x1="180" x2="180" y1="76" y2="80"/>
</g>
<g>
<line class="fg_stroke" x1="180" x2="180" y1="100" y2="96"/>
</g>
<g>
<line class="fg_stroke" x1="180" x2="180" y1="124" y2="128"/>
</g>
<g>
<line class="fg_stroke" x1="180" x2="180" y1="148" y2="144"/>
</g>
<g>
<line class="fg_stroke" x1="180" x2="180" y1="172" y2="184"/>
<line class="fg_stroke" x1="180" x2="180" y1="184" y2="196"/>
<line class="fg_stroke" x1="180" x2="212" y1="184" y2="184"/>
<line class="fg_stroke" x1="212" x2="212" y1="184" y2="176"/>
<line class="fg_stroke" x1="212" x2="212" y1="184" y2="216"/>
<line class="fg_stroke" x1="212" x2="212" y1="216" y2="228"/>
<line class="fg_stroke" x1="212" x2="240" y1="216" y2="216"/>
<line class="fg_stroke dashed" x1="212" x2="212" y1="160" y2="176"/>
<path class="fg_stroke no_fill" d="M 208 232 A 4 4 0 0 0 212 228"/>
</g>
<g>
<line class="fg_stroke" x1="180" x2="180" y1="220" y2="232"/>
<line class="fg_stroke" x1="180" x2="180" y1="232" y2="244"/>
<line class="fg_stroke" x1="180" x2="208" y1="232" y2="232"/>
</g>
<g>
<line class="fg_stroke" x1="230" x2="252" y1="44" y2="88"/>
<line class="fg_stroke" x1="252" x2="230" y1="88" y2="132"/>
<line class="fg_stroke" marker-end="url(#triangle)" x1="252" x2="284" y1="88" y2="88"/>
<path class="fg_stroke no_fill" d="M 224 136 A 8 8 0 0 0 230 132"/>
<path class="fg_stroke no_fill" d="M 230 44 A 8 8 0 0 0 224 40"/>
<line class="fg_stroke" marker-start="url(#big_open_circle)" x1="180" x2="224" y1="40" y2="40"/>
<line class="fg_stroke" marker-start="url(#big_open_circle)" x1="180" x2="252" y1="88" y2="88"/>
<line class="fg_stroke" marker-start="url(#big_open_circle)" x1="180" x2="224" y1="136" y2="136"/>
</g>
<g>
<line class="fg_stroke" x1="276" x2="276" y1="28" y2="32"/>
<line class="fg_stroke dashed" x1="276" x2="276" y1="32" y2="80"/>
</g>
<g>
<line class="fg_stroke" x1="300" x2="300" y1="60" y2="88"/>
<line class="fg_stroke" x1="300" x2="300" y1="88" y2="116"/>
<line class="fg_stroke" x1="300" x2="444" y1="88" y2="88"/>
<line class="fg_stroke" x1="444" x2="444" y1="88" y2="80"/>
<line class="fg_stroke" x1="444" x2="444" y1="88" y2="96"/>
<path class="fg_stroke no_fill" d="M 300 116 A 4 4 0 0 0 304 120"/>
<path class="fg_stroke no_fill" d="M 304 56 A 4 4 0 0 0 300 60"/>
</g>
<g>
<line class="fg_stroke" x1="304" x2="440" y1="56" y2="56"/>
<path class="fg_stroke no_fill" d="M 444 60 A 4 4 0 0 0 440 56"/>
</g>
<g>
<line class="fg_stroke" x1="304" x2="440" y1="120" y2="120"/>
<path class="fg_stroke no_fill" d="M 440 120 A 4 4 0 0 0 444 116"/>
</g>
<g>
<line class="fg_stroke" x1="380" x2="380" y1="148" y2="144"/>
<line class="fg_stroke dashed" x1="380" x2="380" y1="128" y2="144"/>
</g>
<g>
<line class="fg_stroke" x1="444" x2="444" y1="60" y2="64"/>
</g>
<g>
<line class="fg_stroke" x1="444" x2="444" y1="116" y2="112"/>
</g>
<g>
<line class="fg_stroke" x1="484" x2="470" y1="72" y2="100"/>
<line class="fg_stroke" marker-end="url(#triangle)" x1="484" x2="516" y1="72" y2="72"/>
<path class="fg_stroke no_fill" d="M 464 104 A 8 8 0 0 0 470 100"/>
<line class="fg_stroke" marker-start="url(#big_open_circle)" x1="444" x2="484" y1="72" y2="72"/>
<line class="fg_stroke" marker-start="url(#big_open_circle)" x1="444" x2="464" y1="104" y2="104"/>
</g>
<g>
<line class="fg_stroke" x1="524" x2="524" y1="60" y2="84"/>
<path class="fg_stroke no_fill" d="M 524 84 A 4 4 0 0 0 528 88"/>
<path class="fg_stroke no_fill" d="M 528 56 A 4 4 0 0 0 524 60"/>
</g>
<g>
<line class="fg_stroke" x1="528" x2="648" y1="56" y2="56"/>
<path class="fg_stroke no_fill" d="M 652 60 A 4 4 0 0 0 648 56"/>
</g>
<g>
<line class="fg_stroke" x1="528" x2="648" y1="88" y2="88"/>
<path class="fg_stroke no_fill" d="M 648 88 A 4 4 0 0 0 652 84"/>
</g>
<g>
<line class="fg_stroke" x1="652" x2="652" y1="60" y2="84"/>
</g>
<g>
<line class="fg_stroke dashed" x1="508" x2="508" y1="32" y2="64"/>
</g>
<g>
<text class="fg_fill" x="65" y="44">
Share 1/5
</text>
</g>
<g>
<text class="fg_fill" x="65" y="92">
Share 2/5
</text>
</g>
<g>
<text class="fg_fill" x="65" y="140">
Share 3/5
</text>
</g>
<g>
<text class="fg_fill" x="65" y="188">
Share 4/5
</text>
</g>
<g>
<text class="fg_fill" x="65" y="236">
Share 5/5
</text>
</g>
<g>
<text class="fg_fill" x="193" y="12">
Recovery from 3 of 5 Backup Shares
</text>
</g>
<g>
<text class="fg_fill" x="249" y="220">
Distributed at Secure Locations
</text>
</g>
<g>
<text class="fg_fill" x="249" y="236">
and/or with Trusted People
</text>
</g>
<g>
<text class="fg_fill" x="305" y="172">
Known Only by Wallet Owner
</text>
</g>
<g>
<text class="fg_fill" x="345" y="108">
Brainkey
</text>
</g>
<g>
<text class="fg_fill" x="361" y="76">
Salt
</text>
</g>
<g>
<text class="fg_fill" x="449" y="28">
Load Wallet (Regular Use)
</text>
</g>
<g>
<text class="fg_fill" x="545" y="76">
Wallet Seed
</text>
</g>
</svg>