<svg class="bob" font-family="arial" font-size="14" height="80" width="760" xmlns="http://www.w3.org/2000/svg">
<defs>
<marker id="triangle" markerHeight="8" markerWidth="8" orient="auto" refX="4" refY="2" viewBox="0 0 8 4">
<polygon class="fg_fill" points="0,0 0,4 8,2 0,0"/>
</marker>
<marker id="clear_triangle" markerHeight="10" markerWidth="10" orient="auto" refX="1" refY="7" viewBox="0 0 20 14">
<polygon class="bg_fill fg_stroke" points="2,2 2,12 18,7 2,2"/>
</marker>
<marker id="circle" markerHeight="5" markerWidth="5" orient="auto" refX="10" refY="10" viewBox="0 0 20 20">
<circle class="fg_fill" cx="10" cy="10" r="8"/>
</marker>
<marker id="square" markerHeight="5" markerWidth="5" orient="auto" refX="10" refY="10" viewBox="0 0 20 20">
<rect class="fg_fill" height="20" width="20" x="0" y="0"/>
</marker>
<marker id="open_circle" markerHeight="10" markerWidth="10" orient="auto" refX="10" refY="10" viewBox="0 0 20 20">
<circle class="bg_fill fg_stroke" cx="10" cy="10" r="4"/>
</marker>
<marker id="big_open_circle" markerHeight="20" markerWidth="20" orient="auto" refX="20" refY="20" viewBox="0 0 40 40">
<circle class="bg_fill fg_stroke" cx="20" cy="20" r="6"/>
</marker>
</defs>
<style type="text/css">

rect.backdrop {
    fill: white;
}

.fg_fill {
    fill: black;
}


.bg_fill {
    fill: white;
}

.fg_stroke {
    stroke: black;
    stroke-width: 2;
}

.no_fill {
    fill: none;
}

.dashed {
    stroke-dasharray: 5;
}


text{
    fill: black;
}

line, path {
    stroke-linecap: round;
    stroke-linejoin: miter;
    stroke-opacity: 1;
    fill-opacity: 1;
}




tspan.head{
    fill: none;
    stroke: none;
}
    
</style>
<rect class="backdrop" height="80" width="760" x="0" y="0"/>
<g>
<line class="fg_stroke" x1="60" x2="60" y1="44" y2="68"/>
<path class="fg_stroke no_fill" d="M 60 68 A 4 4 0 0 0 64 72"/>
<path class="fg_stroke no_fill" d="M 64 40 A 4 4 0 0 0 60 44"/>
</g>
<g>
<line class="fg_stroke" x1="64" x2="184" y1="40" y2="40"/>
<path class="fg_stroke no_fill" d="M 188 44 A 4 4 0 0 0 184 40"/>
</g>
<g>
<line class="fg_stroke" x1="64" x2="184" y1="72" y2="72"/>
<path class="fg_stroke no_fill" d="M 184 72 A 4 4 0 0 0 188 68"/>
</g>
<g>
<line class="fg_stroke" x1="188" x2="188" y1="44" y2="68"/>
</g>
<g>
<line class="fg_stroke" x1="196" x2="196" y1="44" y2="68"/>
<path class="fg_stroke no_fill" d="M 196 68 A 4 4 0 0 0 200 72"/>
<path class="fg_stroke no_fill" d="M 200 40 A 4 4 0 0 0 196 44"/>
</g>
<g>
<line class="fg_stroke" x1="200" x2="224" y1="40" y2="40"/>
<path class="fg_stroke no_fill" d="M 228 44 A 4 4 0 0 0 224 40"/>
</g>
<g>
<line class="fg_stroke" x1="200" x2="224" y1="72" y2="72"/>
<path class="fg_stroke no_fill" d="M 224 72 A 4 4 0 0 0 228 68"/>
</g>
<g>
<line class="fg_stroke" x1="228" x2="228" y1="44" y2="68"/>
</g>
<g>
<line class="fg_stroke" x1="236" x2="236" y1="44" y2="68"/>
<path class="fg_stroke no_fill" d="M 236 68 A 4 4 0 0 0 240 72"/>
<path class="fg_stroke no_fill" d="M 240 40 A 4 4 0 0 0 236 44"/>
</g>
<g>
<line class="fg_stroke" x1="240" x2="488" y1="40" y2="40"/>
<path class="fg_stroke no_fill" d="M 492 44 A 4 4 0 0 0 488 40"/>
</g>
<g>
<line class="fg_stroke" x1="240" x2="488" y1="72" y2="72"/>
<path class="fg_stroke no_fill" d="M 488 72 A 4 4 0 0 0 492 68"/>
</g>
<g>
<line class="fg_stroke" x1="492" x2="492" y1="44" y2="68"/>
</g>
<g>
<line class="fg_stroke" x1="500" x2="500" y1="44" y2="68"/>
<path class="fg_stroke no_fill" d="M 500 68 A 4 4 0 0 0 504 72"/>
<path class="fg_stroke no_fill" d="M 504 40 A 4 4 0 0 0 500 44"/>
</g>
<g>
<line class="fg_stroke" x1="504" x2="752" y1="40" y2="40"/>
<path class="fg_stroke no_fill" d="M 756 44 A 4 4 0 0 0 752 40"/>
</g>
<g>
<line class="fg_stroke" x1="504" x2="752" y1="72" y2="72"/>
<path class="fg_stroke no_fill" d="M 752 72 A 4 4 0 0 0 756 68"/>
</g>
<g>
<line class="fg_stroke" x1="756" x2="756" y1="44" y2="68"/>
</g>
<g>
<line class="fg_stroke dashed" x1="92" x2="92" y1="48" y2="64"/>
</g>
<g>
<line class="fg_stroke dashed" x1="124" x2="124" y1="48" y2="64"/>
</g>
<g>
<line class="fg_stroke dashed" x1="156" x2="156" y1="48" y2="64"/>
</g>
<g>
<line class="fg_stroke dashed" x1="268" x2="268" y1="48" y2="64"/>
</g>
<g>
<line class="fg_stroke dashed" x1="300" x2="300" y1="48" y2="64"/>
</g>
<g>
<line class="fg_stroke dashed" x1="332" x2="332" y1="48" y2="64"/>
</g>
<g>
<line class="fg_stroke dashed" x1="364" x2="364" y1="48" y2="64"/>
</g>
<g>
<line class="fg_stroke dashed" x1="396" x2="396" y1="48" y2="64"/>
</g>
<g>
<line class="fg_stroke dashed" x1="428" x2="428" y1="48" y2="64"/>
</g>
<g>
<line class="fg_stroke dashed" x1="460" x2="460" y1="48" y2="64"/>
</g>
<g>
<line class="fg_stroke dashed" x1="532" x2="532" y1="48" y2="64"/>
</g>
<g>
<line class="fg_stroke dashed" x1="564" x2="564" y1="48" y2="64"/>
</g>
<g>
<line class="fg_stroke dashed" x1="596" x2="596" y1="48" y2="64"/>
</g>
<g>
<line class="fg_stroke dashed" x1="628" x2="628" y1="48" y2="64"/>
</g>
<g>
<line class="fg_stroke dashed" x1="660" x2="660" y1="48" y2="64"/>
</g>
<g>
<line class="fg_stroke dashed" x1="692" x2="692" y1="48" y2="64"/>
</g>
<g>
<line class="fg_stroke dashed" x1="724" x2="724" y1="48" y2="64"/>
</g>
<g>
<text class="fg_fill" x="9" y="60">
Share
</text>
</g>
<g>
<text class="fg_fill" x="73" y="60">
0
</text>
</g>
<g>
<text class="fg_fill" x="89" y="28">
Parameters
</text>
</g>
<g>
<text class="fg_fill" x="105" y="60">
1
</text>
</g>
<g>
<text class="fg_fill" x="137" y="60">
2
</text>
</g>
<g>
<text class="fg_fill" x="169" y="60">
3
</text>
</g>
<g>
<text class="fg_fill" x="201" y="28">
X
</text>
</g>
<g>
<text class="fg_fill" x="209" y="60">
1
</text>
</g>
<g>
<text class="fg_fill" x="249" y="60">
F
</text>
</g>
<g>
<text class="fg_fill" x="281" y="60">
A
</text>
</g>
<g>
<text class="fg_fill" x="313" y="28">
Share Data
</text>
</g>
<g>
<text class="fg_fill" x="313" y="60">
Y
</text>
</g>
<g>
<text class="fg_fill" x="345" y="60">
U
</text>
</g>
<g>
<text class="fg_fill" x="377" y="60">
K
</text>
</g>
<g>
<text class="fg_fill" x="409" y="60">
T
</text>
</g>
<g>
<text class="fg_fill" x="441" y="60">
E
</text>
</g>
<g>
<text class="fg_fill" x="473" y="60">
M
</text>
</g>
<g>
<text class="fg_fill" x="513" y="60">
K
</text>
</g>
<g>
<text class="fg_fill" x="545" y="60">
D
</text>
</g>
<g>
<text class="fg_fill" x="577" y="60">
X
</text>
</g>
<g>
<text class="fg_fill" x="585" y="28">
ECC Data
</text>
</g>
<g>
<text class="fg_fill" x="609" y="60">
U
</text>
</g>
<g>
<text class="fg_fill" x="641" y="60">
Q
</text>
</g>
<g>
<text class="fg_fill" x="673" y="60">
B
</text>
</g>
<g>
<text class="fg_fill" x="705" y="60">
D
</text>
</g>
<g>
<text class="fg_fill" x="737" y="60">
P
</text>
</g>
</svg>