<?xml version="1.0" encoding="UTF-8" standalone="no"?>
<!-- Created with Inkscape (http://www.inkscape.org/) -->

<svg
   xmlns:dc="http://purl.org/dc/elements/1.1/"
   xmlns:cc="http://creativecommons.org/ns#"
   xmlns:rdf="http://www.w3.org/1999/02/22-rdf-syntax-ns#"
   xmlns:svg="http://www.w3.org/2000/svg"
   xmlns="http://www.w3.org/2000/svg"
   xmlns:xlink="http://www.w3.org/1999/xlink"
   xmlns:sodipodi="http://sodipodi.sourceforge.net/DTD/sodipodi-0.dtd"
   xmlns:inkscape="http://www.inkscape.org/namespaces/inkscape"
   width="100mm"
   height="100mm"
   viewBox="0 0 100 100"
   version="1.1"
   id="svg8"
   inkscape:version="0.92.1 r15371"
   sodipodi:docname="shamir_wallet_logo.sv.svg">
  <defs
     id="defs2">
    <clipPath
       clipPathUnits="userSpaceOnUse"
       id="clipPath3866">
      <use
         x="0"
         y="0"
         xlink:href="#g3862"
         id="use3868"
         width="100%"
         height="100%" />
    </clipPath>
  </defs>
  <sodipodi:namedview
     id="base"
     pagecolor="#ffffff"
     bordercolor="#666666"
     borderopacity="1.0"
     inkscape:pageopacity="0.0"
     inkscape:pageshadow="2"
     inkscape:zoom="1.4219465"
     inkscape:cx="178.37549"
     inkscape:cy="242.83687"
     inkscape:document-units="mm"
     inkscape:current-layer="layer2"
     showgrid="false"
     showguides="false"
     inkscape:window-width="1289"
     inkscape:window-height="1080"
     inkscape:window-x="1973"
     inkscape:window-y="0"
     inkscape:window-maximized="0" />
  <metadata
     id="metadata5">
    <rdf:RDF>
      <cc:Work
         rdf:about="">
        <dc:format>image/svg+xml</dc:format>
        <dc:type
           rdf:resource="http://purl.org/dc/dcmitype/StillImage" />
        <dc:title></dc:title>
      </cc:Work>
    </rdf:RDF>
  </metadata>
  <g
     inkscape:groupmode="layer"
     id="layer2"
     inkscape:label="Layer 2">
    <g
       style="display:inline;fill:#000000"
       id="g3751"
       transform="matrix(0,1.1504207,1.1504207,0,-8.5025304,-6.1742476)">
      <g
         id="g3738">
        <g
           id="g3736">
          <path
             id="path3734"
             d="m 48.620303,84.3 c -0.5,0 -0.9,-0.1 -1.3,-0.4 -0.9,-0.7 -1.1,-1.9 -0.5,-2.8 4.2,-5.8 2.9,-14 -3,-18.2 -5.9,-4.2 -14,-2.9 -18.2,3 -3.2,4.4 -3.3,10.4 -0.2,14.9 0.3,0.5 0.5,1 0.4,1.5 -0.1,1.3 -1.3,2.4 -2.6,2.3 L 7.8,83 C 6.6,82.9 5.7,81.9 5.7,80.8 V 17.1 H 69.8 70 c 1.2,0.1 2.1,1.2 2,2.4 l -1.8,20.4 c -0.2,2.2 1.5,4.2 3.7,4.4 0.6,0.1 1.3,0 1.8,-0.3 2.9,-1.1 5.7,-2.4 8.5,-3.7 v 0 c 2.4,-1.1 5.3,-0.1 6.4,2.4 3,6.5 0.9,14.2 -5,18.2 -2.7,1.9 -6.3,2 -9.2,0.5 -2,-1.1 -4.5,-0.3 -5.6,1.8 -0.4,0.7 -0.5,1.5 -0.5,2.3 l 1.6,15.7 v 0.1 c 0,1.2 -0.9,2.3 -2.2,2.3 l -13.776438,0.665708 z"
             inkscape:connector-curvature="0"
             sodipodi:nodetypes="cccscccccscccccccccccccccsccc" />
        </g>
      </g>
    </g>
    <path
       inkscape:connector-curvature="0"
       d="m 17.01426,54.510076 h 5.993562 V 20.095409 H 17.01426 v -7.926971 h 8.893676 V 5.5948472 h 5.993567 v 6.5735908 h 4.446838 V 5.5948472 h 5.993566 v 6.7669288 c 8.506995,0.773365 12.953836,5.800223 12.953836,13.533858 0,4.446838 -2.513431,8.313655 -6.186909,10.053723 v 0.193352 c 4.833523,1.933409 7.540297,5.800225 7.540297,11.600446 0,8.120315 -4.2535,13.53386 -14.307224,14.307224 v 6.766928 h -5.993566 v -6.57359 h -4.446838 v 6.57359 h -5.993567 v -6.57359 H 17.01426 Z"
       id="path3684-2"
       sodipodi:nodetypes="cccccccccccccsccscccccccccc"
       style="fill:#ffffff;stroke-width:1.93340814"
       mask="none" />
    <g
       id="g3864"
       clip-path="url(#clipPath3866)"
       transform="translate(0.93921528,0.137328)"
       style="fill:#000000">
      <g
         inkscape:label="Clip"
         id="g3862"
         style="fill:#000000">
        <path
           mask="none"
           id="path3682-0"
           d="m 46.432828,47.412477 c 0,-5.220203 -2.900114,-6.960269 -8.120315,-6.960269 h -7.34695 v 13.920539 h 6.960269 c 5.606882,0 8.506996,-1.740068 8.506996,-6.96027 z"
           inkscape:connector-curvature="0"
           style="fill:#000000;stroke-width:1.93340814" />
        <path
           id="path3680"
           d="m 45.079437,26.338328 c 0,-3.866819 -2.126751,-6.380247 -6.573589,-6.380247 h -7.540285 v 12.760495 h 7.540285 c 4.446838,0 6.573589,-2.32009 6.573589,-6.380248 z"
           inkscape:connector-curvature="0"
           style="fill:#000000;stroke-width:1.93340814" />
      </g>
    </g>
  </g>
</svg>
